M48
;DRILL file {KiCad 5.0.2-bee76a0~70~ubuntu16.04.1} date Sun 31 Mar 2019 07:27:29 PM CDT
;FORMAT={-:-/ absolute / metric / decimal}
FMAT,2
METRIC,TZ
T1C0.600
T2C0.700
T3C0.800
T4C0.900
T5C1.001
T6C1.100
T7C1.500
%
G90
G05
T1
X139.065Y-92.615
X139.065Y-94.615
X177.165Y-91.98
X177.165Y-93.98
T2
X174.625Y-97.79
X174.625Y-105.41
X139.065Y-97.79
X139.065Y-105.41
X145.415Y-92.71
X153.035Y-92.71
X167.005Y-97.79
X167.005Y-105.41
X178.435Y-97.79
X178.435Y-105.41
X142.875Y-97.79
X142.875Y-105.41
X170.815Y-97.79
X170.815Y-105.41
X139.065Y-116.84
X146.685Y-116.84
X170.815Y-116.84
X178.435Y-116.84
X146.685Y-97.79
X146.685Y-105.41
X150.495Y-97.79
X150.495Y-105.41
T3
X178.435Y-109.855
X178.435Y-112.355
X139.065Y-109.855
X139.065Y-112.355
X145.415Y-108.585
X145.415Y-113.585
X154.94Y-97.79
X154.94Y-100.33
X154.94Y-102.87
X154.94Y-105.41
X162.56Y-97.79
X162.56Y-100.33
X162.56Y-102.87
X162.56Y-105.41
X143.51Y-121.285
X143.51Y-123.785
X172.085Y-108.585
X172.085Y-113.585
X173.99Y-121.285
X173.99Y-123.785
T4
X157.48Y-92.71
X160.02Y-92.71
T5
X145.415Y-86.995
X148.59Y-86.995
X151.765Y-86.995
X140.335Y-86.995
X177.165Y-86.995
X156.845Y-86.995
X160.655Y-86.995
X180.975Y-86.995
X165.735Y-86.995
X168.91Y-86.995
X172.085Y-86.995
X136.525Y-86.995
T6
X164.465Y-92.71
X172.085Y-92.71
T7
X164.05Y-112.675
X164.05Y-117.475
X164.05Y-122.275
X158.75Y-112.675
X158.75Y-117.475
X158.75Y-122.275
X153.45Y-112.675
X153.45Y-117.475
X153.45Y-122.275
T0
M30
