G04 #@! TF.GenerationSoftware,KiCad,Pcbnew,5.0.2-bee76a0~70~ubuntu16.04.1*
G04 #@! TF.CreationDate,2019-03-31T19:25:15-05:00*
G04 #@! TF.ProjectId,Bloop2,426c6f6f-7032-42e6-9b69-6361645f7063,rev?*
G04 #@! TF.SameCoordinates,Original*
G04 #@! TF.FileFunction,Soldermask,Top*
G04 #@! TF.FilePolarity,Negative*
%FSLAX46Y46*%
G04 Gerber Fmt 4.6, Leading zero omitted, Abs format (unit mm)*
G04 Created by KiCad (PCBNEW 5.0.2-bee76a0~70~ubuntu16.04.1) date Sun 31 Mar 2019 07:25:15 PM CDT*
%MOMM*%
%LPD*%
G01*
G04 APERTURE LIST*
%ADD10C,0.100000*%
G04 APERTURE END LIST*
D10*
G36*
X174223352Y-123015743D02*
X174368941Y-123076048D01*
X174499973Y-123163601D01*
X174611399Y-123275027D01*
X174698952Y-123406059D01*
X174759257Y-123551648D01*
X174790000Y-123706205D01*
X174790000Y-123863795D01*
X174759257Y-124018352D01*
X174698952Y-124163941D01*
X174611399Y-124294973D01*
X174499973Y-124406399D01*
X174368941Y-124493952D01*
X174223352Y-124554257D01*
X174068795Y-124585000D01*
X173911205Y-124585000D01*
X173756648Y-124554257D01*
X173611059Y-124493952D01*
X173480027Y-124406399D01*
X173368601Y-124294973D01*
X173281048Y-124163941D01*
X173220743Y-124018352D01*
X173190000Y-123863795D01*
X173190000Y-123706205D01*
X173220743Y-123551648D01*
X173281048Y-123406059D01*
X173368601Y-123275027D01*
X173480027Y-123163601D01*
X173611059Y-123076048D01*
X173756648Y-123015743D01*
X173911205Y-122985000D01*
X174068795Y-122985000D01*
X174223352Y-123015743D01*
X174223352Y-123015743D01*
G37*
G36*
X143743352Y-123015743D02*
X143888941Y-123076048D01*
X144019973Y-123163601D01*
X144131399Y-123275027D01*
X144218952Y-123406059D01*
X144279257Y-123551648D01*
X144310000Y-123706205D01*
X144310000Y-123863795D01*
X144279257Y-124018352D01*
X144218952Y-124163941D01*
X144131399Y-124294973D01*
X144019973Y-124406399D01*
X143888941Y-124493952D01*
X143743352Y-124554257D01*
X143588795Y-124585000D01*
X143431205Y-124585000D01*
X143276648Y-124554257D01*
X143131059Y-124493952D01*
X143000027Y-124406399D01*
X142888601Y-124294973D01*
X142801048Y-124163941D01*
X142740743Y-124018352D01*
X142710000Y-123863795D01*
X142710000Y-123706205D01*
X142740743Y-123551648D01*
X142801048Y-123406059D01*
X142888601Y-123275027D01*
X143000027Y-123163601D01*
X143131059Y-123076048D01*
X143276648Y-123015743D01*
X143431205Y-122985000D01*
X143588795Y-122985000D01*
X143743352Y-123015743D01*
X143743352Y-123015743D01*
G37*
G36*
X160000000Y-123525000D02*
X157500000Y-123525000D01*
X157500000Y-121025000D01*
X160000000Y-121025000D01*
X160000000Y-123525000D01*
X160000000Y-123525000D01*
G37*
G36*
X165300000Y-123525000D02*
X162800000Y-123525000D01*
X162800000Y-121025000D01*
X165300000Y-121025000D01*
X165300000Y-123525000D01*
X165300000Y-123525000D01*
G37*
G36*
X154700000Y-123525000D02*
X152200000Y-123525000D01*
X152200000Y-121025000D01*
X154700000Y-121025000D01*
X154700000Y-123525000D01*
X154700000Y-123525000D01*
G37*
G36*
X174790000Y-122085000D02*
X173190000Y-122085000D01*
X173190000Y-120485000D01*
X174790000Y-120485000D01*
X174790000Y-122085000D01*
X174790000Y-122085000D01*
G37*
G36*
X144310000Y-122085000D02*
X142710000Y-122085000D01*
X142710000Y-120485000D01*
X144310000Y-120485000D01*
X144310000Y-122085000D01*
X144310000Y-122085000D01*
G37*
G36*
X164414612Y-116273037D02*
X164642096Y-116367264D01*
X164846831Y-116504064D01*
X165020936Y-116678169D01*
X165157736Y-116882904D01*
X165251963Y-117110388D01*
X165300000Y-117351885D01*
X165300000Y-117598115D01*
X165251963Y-117839612D01*
X165157736Y-118067096D01*
X165020936Y-118271831D01*
X164846831Y-118445936D01*
X164642096Y-118582736D01*
X164414612Y-118676963D01*
X164173115Y-118725000D01*
X163926885Y-118725000D01*
X163685388Y-118676963D01*
X163457904Y-118582736D01*
X163253169Y-118445936D01*
X163079064Y-118271831D01*
X162942264Y-118067096D01*
X162848037Y-117839612D01*
X162800000Y-117598115D01*
X162800000Y-117351885D01*
X162848037Y-117110388D01*
X162942264Y-116882904D01*
X163079064Y-116678169D01*
X163253169Y-116504064D01*
X163457904Y-116367264D01*
X163685388Y-116273037D01*
X163926885Y-116225000D01*
X164173115Y-116225000D01*
X164414612Y-116273037D01*
X164414612Y-116273037D01*
G37*
G36*
X153814612Y-116273037D02*
X154042096Y-116367264D01*
X154246831Y-116504064D01*
X154420936Y-116678169D01*
X154557736Y-116882904D01*
X154651963Y-117110388D01*
X154700000Y-117351885D01*
X154700000Y-117598115D01*
X154651963Y-117839612D01*
X154557736Y-118067096D01*
X154420936Y-118271831D01*
X154246831Y-118445936D01*
X154042096Y-118582736D01*
X153814612Y-118676963D01*
X153573115Y-118725000D01*
X153326885Y-118725000D01*
X153085388Y-118676963D01*
X152857904Y-118582736D01*
X152653169Y-118445936D01*
X152479064Y-118271831D01*
X152342264Y-118067096D01*
X152248037Y-117839612D01*
X152200000Y-117598115D01*
X152200000Y-117351885D01*
X152248037Y-117110388D01*
X152342264Y-116882904D01*
X152479064Y-116678169D01*
X152653169Y-116504064D01*
X152857904Y-116367264D01*
X153085388Y-116273037D01*
X153326885Y-116225000D01*
X153573115Y-116225000D01*
X153814612Y-116273037D01*
X153814612Y-116273037D01*
G37*
G36*
X159114612Y-116273037D02*
X159342096Y-116367264D01*
X159546831Y-116504064D01*
X159720936Y-116678169D01*
X159857736Y-116882904D01*
X159951963Y-117110388D01*
X160000000Y-117351885D01*
X160000000Y-117598115D01*
X159951963Y-117839612D01*
X159857736Y-118067096D01*
X159720936Y-118271831D01*
X159546831Y-118445936D01*
X159342096Y-118582736D01*
X159114612Y-118676963D01*
X158873115Y-118725000D01*
X158626885Y-118725000D01*
X158385388Y-118676963D01*
X158157904Y-118582736D01*
X157953169Y-118445936D01*
X157779064Y-118271831D01*
X157642264Y-118067096D01*
X157548037Y-117839612D01*
X157500000Y-117598115D01*
X157500000Y-117351885D01*
X157548037Y-117110388D01*
X157642264Y-116882904D01*
X157779064Y-116678169D01*
X157953169Y-116504064D01*
X158157904Y-116367264D01*
X158385388Y-116273037D01*
X158626885Y-116225000D01*
X158873115Y-116225000D01*
X159114612Y-116273037D01*
X159114612Y-116273037D01*
G37*
G36*
X178572224Y-116150128D02*
X178704175Y-116190155D01*
X178825781Y-116255155D01*
X178932370Y-116342630D01*
X179019845Y-116449219D01*
X179084845Y-116570825D01*
X179124872Y-116702776D01*
X179138387Y-116840000D01*
X179124872Y-116977224D01*
X179084845Y-117109175D01*
X179019845Y-117230781D01*
X178932370Y-117337370D01*
X178825781Y-117424845D01*
X178704175Y-117489845D01*
X178572224Y-117529872D01*
X178469390Y-117540000D01*
X178400610Y-117540000D01*
X178297776Y-117529872D01*
X178165825Y-117489845D01*
X178044219Y-117424845D01*
X177937630Y-117337370D01*
X177850155Y-117230781D01*
X177785155Y-117109175D01*
X177745128Y-116977224D01*
X177731613Y-116840000D01*
X177745128Y-116702776D01*
X177785155Y-116570825D01*
X177850155Y-116449219D01*
X177937630Y-116342630D01*
X178044219Y-116255155D01*
X178165825Y-116190155D01*
X178297776Y-116150128D01*
X178400610Y-116140000D01*
X178469390Y-116140000D01*
X178572224Y-116150128D01*
X178572224Y-116150128D01*
G37*
G36*
X146889183Y-116166900D02*
X147016574Y-116219668D01*
X147069685Y-116255155D01*
X147131225Y-116296275D01*
X147228725Y-116393775D01*
X147305332Y-116508426D01*
X147358100Y-116635817D01*
X147385000Y-116771055D01*
X147385000Y-116908945D01*
X147358100Y-117044183D01*
X147305332Y-117171574D01*
X147228726Y-117286224D01*
X147131224Y-117383726D01*
X147016574Y-117460332D01*
X146889183Y-117513100D01*
X146753945Y-117540000D01*
X146616055Y-117540000D01*
X146480817Y-117513100D01*
X146353426Y-117460332D01*
X146238776Y-117383726D01*
X146141274Y-117286224D01*
X146064668Y-117171574D01*
X146011900Y-117044183D01*
X145985000Y-116908945D01*
X145985000Y-116771055D01*
X146011900Y-116635817D01*
X146064668Y-116508426D01*
X146141275Y-116393775D01*
X146238775Y-116296275D01*
X146300316Y-116255155D01*
X146353426Y-116219668D01*
X146480817Y-116166900D01*
X146616055Y-116140000D01*
X146753945Y-116140000D01*
X146889183Y-116166900D01*
X146889183Y-116166900D01*
G37*
G36*
X139202224Y-116150128D02*
X139334175Y-116190155D01*
X139455781Y-116255155D01*
X139562370Y-116342630D01*
X139649845Y-116449219D01*
X139714845Y-116570825D01*
X139754872Y-116702776D01*
X139768387Y-116840000D01*
X139754872Y-116977224D01*
X139714845Y-117109175D01*
X139649845Y-117230781D01*
X139562370Y-117337370D01*
X139455781Y-117424845D01*
X139334175Y-117489845D01*
X139202224Y-117529872D01*
X139099390Y-117540000D01*
X139030610Y-117540000D01*
X138927776Y-117529872D01*
X138795825Y-117489845D01*
X138674219Y-117424845D01*
X138567630Y-117337370D01*
X138480155Y-117230781D01*
X138415155Y-117109175D01*
X138375128Y-116977224D01*
X138361613Y-116840000D01*
X138375128Y-116702776D01*
X138415155Y-116570825D01*
X138480155Y-116449219D01*
X138567630Y-116342630D01*
X138674219Y-116255155D01*
X138795825Y-116190155D01*
X138927776Y-116150128D01*
X139030610Y-116140000D01*
X139099390Y-116140000D01*
X139202224Y-116150128D01*
X139202224Y-116150128D01*
G37*
G36*
X171019183Y-116166900D02*
X171146574Y-116219668D01*
X171199685Y-116255155D01*
X171261225Y-116296275D01*
X171358725Y-116393775D01*
X171435332Y-116508426D01*
X171488100Y-116635817D01*
X171515000Y-116771055D01*
X171515000Y-116908945D01*
X171488100Y-117044183D01*
X171435332Y-117171574D01*
X171358726Y-117286224D01*
X171261224Y-117383726D01*
X171146574Y-117460332D01*
X171019183Y-117513100D01*
X170883945Y-117540000D01*
X170746055Y-117540000D01*
X170610817Y-117513100D01*
X170483426Y-117460332D01*
X170368776Y-117383726D01*
X170271274Y-117286224D01*
X170194668Y-117171574D01*
X170141900Y-117044183D01*
X170115000Y-116908945D01*
X170115000Y-116771055D01*
X170141900Y-116635817D01*
X170194668Y-116508426D01*
X170271275Y-116393775D01*
X170368775Y-116296275D01*
X170430316Y-116255155D01*
X170483426Y-116219668D01*
X170610817Y-116166900D01*
X170746055Y-116140000D01*
X170883945Y-116140000D01*
X171019183Y-116166900D01*
X171019183Y-116166900D01*
G37*
G36*
X145648352Y-112815743D02*
X145793941Y-112876048D01*
X145924973Y-112963601D01*
X146036399Y-113075027D01*
X146123952Y-113206059D01*
X146184257Y-113351648D01*
X146215000Y-113506205D01*
X146215000Y-113663795D01*
X146184257Y-113818352D01*
X146123952Y-113963941D01*
X146036399Y-114094973D01*
X145924973Y-114206399D01*
X145793941Y-114293952D01*
X145648352Y-114354257D01*
X145493795Y-114385000D01*
X145336205Y-114385000D01*
X145181648Y-114354257D01*
X145036059Y-114293952D01*
X144905027Y-114206399D01*
X144793601Y-114094973D01*
X144706048Y-113963941D01*
X144645743Y-113818352D01*
X144615000Y-113663795D01*
X144615000Y-113506205D01*
X144645743Y-113351648D01*
X144706048Y-113206059D01*
X144793601Y-113075027D01*
X144905027Y-112963601D01*
X145036059Y-112876048D01*
X145181648Y-112815743D01*
X145336205Y-112785000D01*
X145493795Y-112785000D01*
X145648352Y-112815743D01*
X145648352Y-112815743D01*
G37*
G36*
X172318352Y-112815743D02*
X172463941Y-112876048D01*
X172594973Y-112963601D01*
X172706399Y-113075027D01*
X172793952Y-113206059D01*
X172854257Y-113351648D01*
X172885000Y-113506205D01*
X172885000Y-113663795D01*
X172854257Y-113818352D01*
X172793952Y-113963941D01*
X172706399Y-114094973D01*
X172594973Y-114206399D01*
X172463941Y-114293952D01*
X172318352Y-114354257D01*
X172163795Y-114385000D01*
X172006205Y-114385000D01*
X171851648Y-114354257D01*
X171706059Y-114293952D01*
X171575027Y-114206399D01*
X171463601Y-114094973D01*
X171376048Y-113963941D01*
X171315743Y-113818352D01*
X171285000Y-113663795D01*
X171285000Y-113506205D01*
X171315743Y-113351648D01*
X171376048Y-113206059D01*
X171463601Y-113075027D01*
X171575027Y-112963601D01*
X171706059Y-112876048D01*
X171851648Y-112815743D01*
X172006205Y-112785000D01*
X172163795Y-112785000D01*
X172318352Y-112815743D01*
X172318352Y-112815743D01*
G37*
G36*
X159114612Y-111473037D02*
X159342096Y-111567264D01*
X159546831Y-111704064D01*
X159720936Y-111878169D01*
X159857736Y-112082904D01*
X159951963Y-112310388D01*
X160000000Y-112551885D01*
X160000000Y-112798115D01*
X159951963Y-113039612D01*
X159857736Y-113267096D01*
X159720936Y-113471831D01*
X159546831Y-113645936D01*
X159342096Y-113782736D01*
X159114612Y-113876963D01*
X158873115Y-113925000D01*
X158626885Y-113925000D01*
X158385388Y-113876963D01*
X158157904Y-113782736D01*
X157953169Y-113645936D01*
X157779064Y-113471831D01*
X157642264Y-113267096D01*
X157548037Y-113039612D01*
X157500000Y-112798115D01*
X157500000Y-112551885D01*
X157548037Y-112310388D01*
X157642264Y-112082904D01*
X157779064Y-111878169D01*
X157953169Y-111704064D01*
X158157904Y-111567264D01*
X158385388Y-111473037D01*
X158626885Y-111425000D01*
X158873115Y-111425000D01*
X159114612Y-111473037D01*
X159114612Y-111473037D01*
G37*
G36*
X164414612Y-111473037D02*
X164642096Y-111567264D01*
X164846831Y-111704064D01*
X165020936Y-111878169D01*
X165157736Y-112082904D01*
X165251963Y-112310388D01*
X165300000Y-112551885D01*
X165300000Y-112798115D01*
X165251963Y-113039612D01*
X165157736Y-113267096D01*
X165020936Y-113471831D01*
X164846831Y-113645936D01*
X164642096Y-113782736D01*
X164414612Y-113876963D01*
X164173115Y-113925000D01*
X163926885Y-113925000D01*
X163685388Y-113876963D01*
X163457904Y-113782736D01*
X163253169Y-113645936D01*
X163079064Y-113471831D01*
X162942264Y-113267096D01*
X162848037Y-113039612D01*
X162800000Y-112798115D01*
X162800000Y-112551885D01*
X162848037Y-112310388D01*
X162942264Y-112082904D01*
X163079064Y-111878169D01*
X163253169Y-111704064D01*
X163457904Y-111567264D01*
X163685388Y-111473037D01*
X163926885Y-111425000D01*
X164173115Y-111425000D01*
X164414612Y-111473037D01*
X164414612Y-111473037D01*
G37*
G36*
X153814612Y-111473037D02*
X154042096Y-111567264D01*
X154246831Y-111704064D01*
X154420936Y-111878169D01*
X154557736Y-112082904D01*
X154651963Y-112310388D01*
X154700000Y-112551885D01*
X154700000Y-112798115D01*
X154651963Y-113039612D01*
X154557736Y-113267096D01*
X154420936Y-113471831D01*
X154246831Y-113645936D01*
X154042096Y-113782736D01*
X153814612Y-113876963D01*
X153573115Y-113925000D01*
X153326885Y-113925000D01*
X153085388Y-113876963D01*
X152857904Y-113782736D01*
X152653169Y-113645936D01*
X152479064Y-113471831D01*
X152342264Y-113267096D01*
X152248037Y-113039612D01*
X152200000Y-112798115D01*
X152200000Y-112551885D01*
X152248037Y-112310388D01*
X152342264Y-112082904D01*
X152479064Y-111878169D01*
X152653169Y-111704064D01*
X152857904Y-111567264D01*
X153085388Y-111473037D01*
X153326885Y-111425000D01*
X153573115Y-111425000D01*
X153814612Y-111473037D01*
X153814612Y-111473037D01*
G37*
G36*
X139298352Y-111585743D02*
X139443941Y-111646048D01*
X139574973Y-111733601D01*
X139686399Y-111845027D01*
X139773952Y-111976059D01*
X139834257Y-112121648D01*
X139865000Y-112276205D01*
X139865000Y-112433795D01*
X139834257Y-112588352D01*
X139773952Y-112733941D01*
X139686399Y-112864973D01*
X139574973Y-112976399D01*
X139443941Y-113063952D01*
X139298352Y-113124257D01*
X139143795Y-113155000D01*
X138986205Y-113155000D01*
X138831648Y-113124257D01*
X138686059Y-113063952D01*
X138555027Y-112976399D01*
X138443601Y-112864973D01*
X138356048Y-112733941D01*
X138295743Y-112588352D01*
X138265000Y-112433795D01*
X138265000Y-112276205D01*
X138295743Y-112121648D01*
X138356048Y-111976059D01*
X138443601Y-111845027D01*
X138555027Y-111733601D01*
X138686059Y-111646048D01*
X138831648Y-111585743D01*
X138986205Y-111555000D01*
X139143795Y-111555000D01*
X139298352Y-111585743D01*
X139298352Y-111585743D01*
G37*
G36*
X178668352Y-111585743D02*
X178813941Y-111646048D01*
X178944973Y-111733601D01*
X179056399Y-111845027D01*
X179143952Y-111976059D01*
X179204257Y-112121648D01*
X179235000Y-112276205D01*
X179235000Y-112433795D01*
X179204257Y-112588352D01*
X179143952Y-112733941D01*
X179056399Y-112864973D01*
X178944973Y-112976399D01*
X178813941Y-113063952D01*
X178668352Y-113124257D01*
X178513795Y-113155000D01*
X178356205Y-113155000D01*
X178201648Y-113124257D01*
X178056059Y-113063952D01*
X177925027Y-112976399D01*
X177813601Y-112864973D01*
X177726048Y-112733941D01*
X177665743Y-112588352D01*
X177635000Y-112433795D01*
X177635000Y-112276205D01*
X177665743Y-112121648D01*
X177726048Y-111976059D01*
X177813601Y-111845027D01*
X177925027Y-111733601D01*
X178056059Y-111646048D01*
X178201648Y-111585743D01*
X178356205Y-111555000D01*
X178513795Y-111555000D01*
X178668352Y-111585743D01*
X178668352Y-111585743D01*
G37*
G36*
X179235000Y-110655000D02*
X177635000Y-110655000D01*
X177635000Y-109055000D01*
X179235000Y-109055000D01*
X179235000Y-110655000D01*
X179235000Y-110655000D01*
G37*
G36*
X139865000Y-110655000D02*
X138265000Y-110655000D01*
X138265000Y-109055000D01*
X139865000Y-109055000D01*
X139865000Y-110655000D01*
X139865000Y-110655000D01*
G37*
G36*
X145648352Y-107815743D02*
X145793941Y-107876048D01*
X145924973Y-107963601D01*
X146036399Y-108075027D01*
X146123952Y-108206059D01*
X146184257Y-108351648D01*
X146215000Y-108506205D01*
X146215000Y-108663795D01*
X146184257Y-108818352D01*
X146123952Y-108963941D01*
X146036399Y-109094973D01*
X145924973Y-109206399D01*
X145793941Y-109293952D01*
X145648352Y-109354257D01*
X145493795Y-109385000D01*
X145336205Y-109385000D01*
X145181648Y-109354257D01*
X145036059Y-109293952D01*
X144905027Y-109206399D01*
X144793601Y-109094973D01*
X144706048Y-108963941D01*
X144645743Y-108818352D01*
X144615000Y-108663795D01*
X144615000Y-108506205D01*
X144645743Y-108351648D01*
X144706048Y-108206059D01*
X144793601Y-108075027D01*
X144905027Y-107963601D01*
X145036059Y-107876048D01*
X145181648Y-107815743D01*
X145336205Y-107785000D01*
X145493795Y-107785000D01*
X145648352Y-107815743D01*
X145648352Y-107815743D01*
G37*
G36*
X172318352Y-107815743D02*
X172463941Y-107876048D01*
X172594973Y-107963601D01*
X172706399Y-108075027D01*
X172793952Y-108206059D01*
X172854257Y-108351648D01*
X172885000Y-108506205D01*
X172885000Y-108663795D01*
X172854257Y-108818352D01*
X172793952Y-108963941D01*
X172706399Y-109094973D01*
X172594973Y-109206399D01*
X172463941Y-109293952D01*
X172318352Y-109354257D01*
X172163795Y-109385000D01*
X172006205Y-109385000D01*
X171851648Y-109354257D01*
X171706059Y-109293952D01*
X171575027Y-109206399D01*
X171463601Y-109094973D01*
X171376048Y-108963941D01*
X171315743Y-108818352D01*
X171285000Y-108663795D01*
X171285000Y-108506205D01*
X171315743Y-108351648D01*
X171376048Y-108206059D01*
X171463601Y-108075027D01*
X171575027Y-107963601D01*
X171706059Y-107876048D01*
X171851648Y-107815743D01*
X172006205Y-107785000D01*
X172163795Y-107785000D01*
X172318352Y-107815743D01*
X172318352Y-107815743D01*
G37*
G36*
X155057649Y-104617717D02*
X155096827Y-104621576D01*
X155172227Y-104644448D01*
X155247629Y-104667321D01*
X155386608Y-104741608D01*
X155508422Y-104841578D01*
X155608392Y-104963392D01*
X155682679Y-105102371D01*
X155728424Y-105253174D01*
X155743870Y-105410000D01*
X155728424Y-105566826D01*
X155682679Y-105717629D01*
X155608392Y-105856608D01*
X155508422Y-105978422D01*
X155386608Y-106078392D01*
X155247629Y-106152679D01*
X155172227Y-106175552D01*
X155096827Y-106198424D01*
X155057649Y-106202283D01*
X154979295Y-106210000D01*
X154900705Y-106210000D01*
X154822351Y-106202283D01*
X154783173Y-106198424D01*
X154707773Y-106175552D01*
X154632371Y-106152679D01*
X154493392Y-106078392D01*
X154371578Y-105978422D01*
X154271608Y-105856608D01*
X154197321Y-105717629D01*
X154151576Y-105566826D01*
X154136130Y-105410000D01*
X154151576Y-105253174D01*
X154197321Y-105102371D01*
X154271608Y-104963392D01*
X154371578Y-104841578D01*
X154493392Y-104741608D01*
X154632371Y-104667321D01*
X154707773Y-104644448D01*
X154783173Y-104621576D01*
X154822351Y-104617717D01*
X154900705Y-104610000D01*
X154979295Y-104610000D01*
X155057649Y-104617717D01*
X155057649Y-104617717D01*
G37*
G36*
X162677649Y-104617717D02*
X162716827Y-104621576D01*
X162792227Y-104644448D01*
X162867629Y-104667321D01*
X163006608Y-104741608D01*
X163128422Y-104841578D01*
X163228392Y-104963392D01*
X163302679Y-105102371D01*
X163348424Y-105253174D01*
X163363870Y-105410000D01*
X163348424Y-105566826D01*
X163302679Y-105717629D01*
X163228392Y-105856608D01*
X163128422Y-105978422D01*
X163006608Y-106078392D01*
X162867629Y-106152679D01*
X162792227Y-106175552D01*
X162716827Y-106198424D01*
X162677649Y-106202283D01*
X162599295Y-106210000D01*
X162520705Y-106210000D01*
X162442351Y-106202283D01*
X162403173Y-106198424D01*
X162327773Y-106175552D01*
X162252371Y-106152679D01*
X162113392Y-106078392D01*
X161991578Y-105978422D01*
X161891608Y-105856608D01*
X161817321Y-105717629D01*
X161771576Y-105566826D01*
X161756130Y-105410000D01*
X161771576Y-105253174D01*
X161817321Y-105102371D01*
X161891608Y-104963392D01*
X161991578Y-104841578D01*
X162113392Y-104741608D01*
X162252371Y-104667321D01*
X162327773Y-104644448D01*
X162403173Y-104621576D01*
X162442351Y-104617717D01*
X162520705Y-104610000D01*
X162599295Y-104610000D01*
X162677649Y-104617717D01*
X162677649Y-104617717D01*
G37*
G36*
X150699183Y-104736900D02*
X150826574Y-104789668D01*
X150879685Y-104825155D01*
X150941225Y-104866275D01*
X151038725Y-104963775D01*
X151115332Y-105078426D01*
X151168100Y-105205817D01*
X151195000Y-105341055D01*
X151195000Y-105478945D01*
X151168100Y-105614183D01*
X151115332Y-105741574D01*
X151038726Y-105856224D01*
X150941224Y-105953726D01*
X150826574Y-106030332D01*
X150699183Y-106083100D01*
X150563945Y-106110000D01*
X150426055Y-106110000D01*
X150290817Y-106083100D01*
X150163426Y-106030332D01*
X150048776Y-105953726D01*
X149951274Y-105856224D01*
X149874668Y-105741574D01*
X149821900Y-105614183D01*
X149795000Y-105478945D01*
X149795000Y-105341055D01*
X149821900Y-105205817D01*
X149874668Y-105078426D01*
X149951275Y-104963775D01*
X150048775Y-104866275D01*
X150110316Y-104825155D01*
X150163426Y-104789668D01*
X150290817Y-104736900D01*
X150426055Y-104710000D01*
X150563945Y-104710000D01*
X150699183Y-104736900D01*
X150699183Y-104736900D01*
G37*
G36*
X171019183Y-104736900D02*
X171146574Y-104789668D01*
X171199685Y-104825155D01*
X171261225Y-104866275D01*
X171358725Y-104963775D01*
X171435332Y-105078426D01*
X171488100Y-105205817D01*
X171515000Y-105341055D01*
X171515000Y-105478945D01*
X171488100Y-105614183D01*
X171435332Y-105741574D01*
X171358726Y-105856224D01*
X171261224Y-105953726D01*
X171146574Y-106030332D01*
X171019183Y-106083100D01*
X170883945Y-106110000D01*
X170746055Y-106110000D01*
X170610817Y-106083100D01*
X170483426Y-106030332D01*
X170368776Y-105953726D01*
X170271274Y-105856224D01*
X170194668Y-105741574D01*
X170141900Y-105614183D01*
X170115000Y-105478945D01*
X170115000Y-105341055D01*
X170141900Y-105205817D01*
X170194668Y-105078426D01*
X170271275Y-104963775D01*
X170368775Y-104866275D01*
X170430316Y-104825155D01*
X170483426Y-104789668D01*
X170610817Y-104736900D01*
X170746055Y-104710000D01*
X170883945Y-104710000D01*
X171019183Y-104736900D01*
X171019183Y-104736900D01*
G37*
G36*
X146889183Y-104736900D02*
X147016574Y-104789668D01*
X147069685Y-104825155D01*
X147131225Y-104866275D01*
X147228725Y-104963775D01*
X147305332Y-105078426D01*
X147358100Y-105205817D01*
X147385000Y-105341055D01*
X147385000Y-105478945D01*
X147358100Y-105614183D01*
X147305332Y-105741574D01*
X147228726Y-105856224D01*
X147131224Y-105953726D01*
X147016574Y-106030332D01*
X146889183Y-106083100D01*
X146753945Y-106110000D01*
X146616055Y-106110000D01*
X146480817Y-106083100D01*
X146353426Y-106030332D01*
X146238776Y-105953726D01*
X146141274Y-105856224D01*
X146064668Y-105741574D01*
X146011900Y-105614183D01*
X145985000Y-105478945D01*
X145985000Y-105341055D01*
X146011900Y-105205817D01*
X146064668Y-105078426D01*
X146141275Y-104963775D01*
X146238775Y-104866275D01*
X146300316Y-104825155D01*
X146353426Y-104789668D01*
X146480817Y-104736900D01*
X146616055Y-104710000D01*
X146753945Y-104710000D01*
X146889183Y-104736900D01*
X146889183Y-104736900D01*
G37*
G36*
X174829183Y-104736900D02*
X174956574Y-104789668D01*
X175009685Y-104825155D01*
X175071225Y-104866275D01*
X175168725Y-104963775D01*
X175245332Y-105078426D01*
X175298100Y-105205817D01*
X175325000Y-105341055D01*
X175325000Y-105478945D01*
X175298100Y-105614183D01*
X175245332Y-105741574D01*
X175168726Y-105856224D01*
X175071224Y-105953726D01*
X174956574Y-106030332D01*
X174829183Y-106083100D01*
X174693945Y-106110000D01*
X174556055Y-106110000D01*
X174420817Y-106083100D01*
X174293426Y-106030332D01*
X174178776Y-105953726D01*
X174081274Y-105856224D01*
X174004668Y-105741574D01*
X173951900Y-105614183D01*
X173925000Y-105478945D01*
X173925000Y-105341055D01*
X173951900Y-105205817D01*
X174004668Y-105078426D01*
X174081275Y-104963775D01*
X174178775Y-104866275D01*
X174240316Y-104825155D01*
X174293426Y-104789668D01*
X174420817Y-104736900D01*
X174556055Y-104710000D01*
X174693945Y-104710000D01*
X174829183Y-104736900D01*
X174829183Y-104736900D01*
G37*
G36*
X143079183Y-104736900D02*
X143206574Y-104789668D01*
X143259685Y-104825155D01*
X143321225Y-104866275D01*
X143418725Y-104963775D01*
X143495332Y-105078426D01*
X143548100Y-105205817D01*
X143575000Y-105341055D01*
X143575000Y-105478945D01*
X143548100Y-105614183D01*
X143495332Y-105741574D01*
X143418726Y-105856224D01*
X143321224Y-105953726D01*
X143206574Y-106030332D01*
X143079183Y-106083100D01*
X142943945Y-106110000D01*
X142806055Y-106110000D01*
X142670817Y-106083100D01*
X142543426Y-106030332D01*
X142428776Y-105953726D01*
X142331274Y-105856224D01*
X142254668Y-105741574D01*
X142201900Y-105614183D01*
X142175000Y-105478945D01*
X142175000Y-105341055D01*
X142201900Y-105205817D01*
X142254668Y-105078426D01*
X142331275Y-104963775D01*
X142428775Y-104866275D01*
X142490316Y-104825155D01*
X142543426Y-104789668D01*
X142670817Y-104736900D01*
X142806055Y-104710000D01*
X142943945Y-104710000D01*
X143079183Y-104736900D01*
X143079183Y-104736900D01*
G37*
G36*
X167209183Y-104736900D02*
X167336574Y-104789668D01*
X167389685Y-104825155D01*
X167451225Y-104866275D01*
X167548725Y-104963775D01*
X167625332Y-105078426D01*
X167678100Y-105205817D01*
X167705000Y-105341055D01*
X167705000Y-105478945D01*
X167678100Y-105614183D01*
X167625332Y-105741574D01*
X167548726Y-105856224D01*
X167451224Y-105953726D01*
X167336574Y-106030332D01*
X167209183Y-106083100D01*
X167073945Y-106110000D01*
X166936055Y-106110000D01*
X166800817Y-106083100D01*
X166673426Y-106030332D01*
X166558776Y-105953726D01*
X166461274Y-105856224D01*
X166384668Y-105741574D01*
X166331900Y-105614183D01*
X166305000Y-105478945D01*
X166305000Y-105341055D01*
X166331900Y-105205817D01*
X166384668Y-105078426D01*
X166461275Y-104963775D01*
X166558775Y-104866275D01*
X166620316Y-104825155D01*
X166673426Y-104789668D01*
X166800817Y-104736900D01*
X166936055Y-104710000D01*
X167073945Y-104710000D01*
X167209183Y-104736900D01*
X167209183Y-104736900D01*
G37*
G36*
X178572224Y-104720128D02*
X178704175Y-104760155D01*
X178825781Y-104825155D01*
X178932370Y-104912630D01*
X179019845Y-105019219D01*
X179084845Y-105140825D01*
X179124872Y-105272776D01*
X179138387Y-105410000D01*
X179124872Y-105547224D01*
X179084845Y-105679175D01*
X179019845Y-105800781D01*
X178932370Y-105907370D01*
X178825781Y-105994845D01*
X178704175Y-106059845D01*
X178572224Y-106099872D01*
X178469390Y-106110000D01*
X178400610Y-106110000D01*
X178297776Y-106099872D01*
X178165825Y-106059845D01*
X178044219Y-105994845D01*
X177937630Y-105907370D01*
X177850155Y-105800781D01*
X177785155Y-105679175D01*
X177745128Y-105547224D01*
X177731613Y-105410000D01*
X177745128Y-105272776D01*
X177785155Y-105140825D01*
X177850155Y-105019219D01*
X177937630Y-104912630D01*
X178044219Y-104825155D01*
X178165825Y-104760155D01*
X178297776Y-104720128D01*
X178400610Y-104710000D01*
X178469390Y-104710000D01*
X178572224Y-104720128D01*
X178572224Y-104720128D01*
G37*
G36*
X139269183Y-104736900D02*
X139396574Y-104789668D01*
X139449685Y-104825155D01*
X139511225Y-104866275D01*
X139608725Y-104963775D01*
X139685332Y-105078426D01*
X139738100Y-105205817D01*
X139765000Y-105341055D01*
X139765000Y-105478945D01*
X139738100Y-105614183D01*
X139685332Y-105741574D01*
X139608726Y-105856224D01*
X139511224Y-105953726D01*
X139396574Y-106030332D01*
X139269183Y-106083100D01*
X139133945Y-106110000D01*
X138996055Y-106110000D01*
X138860817Y-106083100D01*
X138733426Y-106030332D01*
X138618776Y-105953726D01*
X138521274Y-105856224D01*
X138444668Y-105741574D01*
X138391900Y-105614183D01*
X138365000Y-105478945D01*
X138365000Y-105341055D01*
X138391900Y-105205817D01*
X138444668Y-105078426D01*
X138521275Y-104963775D01*
X138618775Y-104866275D01*
X138680316Y-104825155D01*
X138733426Y-104789668D01*
X138860817Y-104736900D01*
X138996055Y-104710000D01*
X139133945Y-104710000D01*
X139269183Y-104736900D01*
X139269183Y-104736900D01*
G37*
G36*
X155057649Y-102077717D02*
X155096827Y-102081576D01*
X155172227Y-102104448D01*
X155247629Y-102127321D01*
X155386608Y-102201608D01*
X155508422Y-102301578D01*
X155608392Y-102423392D01*
X155682679Y-102562371D01*
X155728424Y-102713174D01*
X155743870Y-102870000D01*
X155728424Y-103026826D01*
X155682679Y-103177629D01*
X155608392Y-103316608D01*
X155508422Y-103438422D01*
X155386608Y-103538392D01*
X155247629Y-103612679D01*
X155172228Y-103635551D01*
X155096827Y-103658424D01*
X155057649Y-103662283D01*
X154979295Y-103670000D01*
X154900705Y-103670000D01*
X154822351Y-103662283D01*
X154783173Y-103658424D01*
X154707772Y-103635551D01*
X154632371Y-103612679D01*
X154493392Y-103538392D01*
X154371578Y-103438422D01*
X154271608Y-103316608D01*
X154197321Y-103177629D01*
X154151576Y-103026826D01*
X154136130Y-102870000D01*
X154151576Y-102713174D01*
X154197321Y-102562371D01*
X154271608Y-102423392D01*
X154371578Y-102301578D01*
X154493392Y-102201608D01*
X154632371Y-102127321D01*
X154707773Y-102104448D01*
X154783173Y-102081576D01*
X154822351Y-102077717D01*
X154900705Y-102070000D01*
X154979295Y-102070000D01*
X155057649Y-102077717D01*
X155057649Y-102077717D01*
G37*
G36*
X162677649Y-102077717D02*
X162716827Y-102081576D01*
X162792227Y-102104448D01*
X162867629Y-102127321D01*
X163006608Y-102201608D01*
X163128422Y-102301578D01*
X163228392Y-102423392D01*
X163302679Y-102562371D01*
X163348424Y-102713174D01*
X163363870Y-102870000D01*
X163348424Y-103026826D01*
X163302679Y-103177629D01*
X163228392Y-103316608D01*
X163128422Y-103438422D01*
X163006608Y-103538392D01*
X162867629Y-103612679D01*
X162792228Y-103635551D01*
X162716827Y-103658424D01*
X162677649Y-103662283D01*
X162599295Y-103670000D01*
X162520705Y-103670000D01*
X162442351Y-103662283D01*
X162403173Y-103658424D01*
X162327772Y-103635551D01*
X162252371Y-103612679D01*
X162113392Y-103538392D01*
X161991578Y-103438422D01*
X161891608Y-103316608D01*
X161817321Y-103177629D01*
X161771576Y-103026826D01*
X161756130Y-102870000D01*
X161771576Y-102713174D01*
X161817321Y-102562371D01*
X161891608Y-102423392D01*
X161991578Y-102301578D01*
X162113392Y-102201608D01*
X162252371Y-102127321D01*
X162327773Y-102104448D01*
X162403173Y-102081576D01*
X162442351Y-102077717D01*
X162520705Y-102070000D01*
X162599295Y-102070000D01*
X162677649Y-102077717D01*
X162677649Y-102077717D01*
G37*
G36*
X162677649Y-99537717D02*
X162716827Y-99541576D01*
X162792228Y-99564449D01*
X162867629Y-99587321D01*
X163006608Y-99661608D01*
X163128422Y-99761578D01*
X163228392Y-99883392D01*
X163302679Y-100022371D01*
X163348424Y-100173174D01*
X163363870Y-100330000D01*
X163348424Y-100486826D01*
X163302679Y-100637629D01*
X163228392Y-100776608D01*
X163128422Y-100898422D01*
X163006608Y-100998392D01*
X162867629Y-101072679D01*
X162792227Y-101095552D01*
X162716827Y-101118424D01*
X162677649Y-101122283D01*
X162599295Y-101130000D01*
X162520705Y-101130000D01*
X162442351Y-101122283D01*
X162403173Y-101118424D01*
X162327773Y-101095552D01*
X162252371Y-101072679D01*
X162113392Y-100998392D01*
X161991578Y-100898422D01*
X161891608Y-100776608D01*
X161817321Y-100637629D01*
X161771576Y-100486826D01*
X161756130Y-100330000D01*
X161771576Y-100173174D01*
X161817321Y-100022371D01*
X161891608Y-99883392D01*
X161991578Y-99761578D01*
X162113392Y-99661608D01*
X162252371Y-99587321D01*
X162327772Y-99564449D01*
X162403173Y-99541576D01*
X162442351Y-99537717D01*
X162520705Y-99530000D01*
X162599295Y-99530000D01*
X162677649Y-99537717D01*
X162677649Y-99537717D01*
G37*
G36*
X155057649Y-99537717D02*
X155096827Y-99541576D01*
X155172228Y-99564449D01*
X155247629Y-99587321D01*
X155386608Y-99661608D01*
X155508422Y-99761578D01*
X155608392Y-99883392D01*
X155682679Y-100022371D01*
X155728424Y-100173174D01*
X155743870Y-100330000D01*
X155728424Y-100486826D01*
X155682679Y-100637629D01*
X155608392Y-100776608D01*
X155508422Y-100898422D01*
X155386608Y-100998392D01*
X155247629Y-101072679D01*
X155172227Y-101095552D01*
X155096827Y-101118424D01*
X155057649Y-101122283D01*
X154979295Y-101130000D01*
X154900705Y-101130000D01*
X154822351Y-101122283D01*
X154783173Y-101118424D01*
X154707773Y-101095552D01*
X154632371Y-101072679D01*
X154493392Y-100998392D01*
X154371578Y-100898422D01*
X154271608Y-100776608D01*
X154197321Y-100637629D01*
X154151576Y-100486826D01*
X154136130Y-100330000D01*
X154151576Y-100173174D01*
X154197321Y-100022371D01*
X154271608Y-99883392D01*
X154371578Y-99761578D01*
X154493392Y-99661608D01*
X154632371Y-99587321D01*
X154707772Y-99564449D01*
X154783173Y-99541576D01*
X154822351Y-99537717D01*
X154900705Y-99530000D01*
X154979295Y-99530000D01*
X155057649Y-99537717D01*
X155057649Y-99537717D01*
G37*
G36*
X155740000Y-98590000D02*
X154140000Y-98590000D01*
X154140000Y-96990000D01*
X155740000Y-96990000D01*
X155740000Y-98590000D01*
X155740000Y-98590000D01*
G37*
G36*
X162677649Y-96997717D02*
X162716827Y-97001576D01*
X162792228Y-97024449D01*
X162867629Y-97047321D01*
X163006608Y-97121608D01*
X163128422Y-97221578D01*
X163228392Y-97343392D01*
X163302679Y-97482371D01*
X163348424Y-97633174D01*
X163363870Y-97790000D01*
X163348424Y-97946826D01*
X163302679Y-98097629D01*
X163228392Y-98236608D01*
X163128422Y-98358422D01*
X163006608Y-98458392D01*
X162867629Y-98532679D01*
X162792227Y-98555552D01*
X162716827Y-98578424D01*
X162677649Y-98582283D01*
X162599295Y-98590000D01*
X162520705Y-98590000D01*
X162442351Y-98582283D01*
X162403173Y-98578424D01*
X162327773Y-98555552D01*
X162252371Y-98532679D01*
X162113392Y-98458392D01*
X161991578Y-98358422D01*
X161891608Y-98236608D01*
X161817321Y-98097629D01*
X161771576Y-97946826D01*
X161756130Y-97790000D01*
X161771576Y-97633174D01*
X161817321Y-97482371D01*
X161891608Y-97343392D01*
X161991578Y-97221578D01*
X162113392Y-97121608D01*
X162252371Y-97047321D01*
X162327772Y-97024449D01*
X162403173Y-97001576D01*
X162442351Y-96997717D01*
X162520705Y-96990000D01*
X162599295Y-96990000D01*
X162677649Y-96997717D01*
X162677649Y-96997717D01*
G37*
G36*
X146822224Y-97100128D02*
X146954175Y-97140155D01*
X147075781Y-97205155D01*
X147182370Y-97292630D01*
X147269845Y-97399219D01*
X147334845Y-97520825D01*
X147374872Y-97652776D01*
X147388387Y-97790000D01*
X147374872Y-97927224D01*
X147334845Y-98059175D01*
X147269845Y-98180781D01*
X147182370Y-98287370D01*
X147075781Y-98374845D01*
X146954175Y-98439845D01*
X146822224Y-98479872D01*
X146719390Y-98490000D01*
X146650610Y-98490000D01*
X146547776Y-98479872D01*
X146415825Y-98439845D01*
X146294219Y-98374845D01*
X146187630Y-98287370D01*
X146100155Y-98180781D01*
X146035155Y-98059175D01*
X145995128Y-97927224D01*
X145981613Y-97790000D01*
X145995128Y-97652776D01*
X146035155Y-97520825D01*
X146100155Y-97399219D01*
X146187630Y-97292630D01*
X146294219Y-97205155D01*
X146415825Y-97140155D01*
X146547776Y-97100128D01*
X146650610Y-97090000D01*
X146719390Y-97090000D01*
X146822224Y-97100128D01*
X146822224Y-97100128D01*
G37*
G36*
X170952224Y-97100128D02*
X171084175Y-97140155D01*
X171205781Y-97205155D01*
X171312370Y-97292630D01*
X171399845Y-97399219D01*
X171464845Y-97520825D01*
X171504872Y-97652776D01*
X171518387Y-97790000D01*
X171504872Y-97927224D01*
X171464845Y-98059175D01*
X171399845Y-98180781D01*
X171312370Y-98287370D01*
X171205781Y-98374845D01*
X171084175Y-98439845D01*
X170952224Y-98479872D01*
X170849390Y-98490000D01*
X170780610Y-98490000D01*
X170677776Y-98479872D01*
X170545825Y-98439845D01*
X170424219Y-98374845D01*
X170317630Y-98287370D01*
X170230155Y-98180781D01*
X170165155Y-98059175D01*
X170125128Y-97927224D01*
X170111613Y-97790000D01*
X170125128Y-97652776D01*
X170165155Y-97520825D01*
X170230155Y-97399219D01*
X170317630Y-97292630D01*
X170424219Y-97205155D01*
X170545825Y-97140155D01*
X170677776Y-97100128D01*
X170780610Y-97090000D01*
X170849390Y-97090000D01*
X170952224Y-97100128D01*
X170952224Y-97100128D01*
G37*
G36*
X174762224Y-97100128D02*
X174894175Y-97140155D01*
X175015781Y-97205155D01*
X175122370Y-97292630D01*
X175209845Y-97399219D01*
X175274845Y-97520825D01*
X175314872Y-97652776D01*
X175328387Y-97790000D01*
X175314872Y-97927224D01*
X175274845Y-98059175D01*
X175209845Y-98180781D01*
X175122370Y-98287370D01*
X175015781Y-98374845D01*
X174894175Y-98439845D01*
X174762224Y-98479872D01*
X174659390Y-98490000D01*
X174590610Y-98490000D01*
X174487776Y-98479872D01*
X174355825Y-98439845D01*
X174234219Y-98374845D01*
X174127630Y-98287370D01*
X174040155Y-98180781D01*
X173975155Y-98059175D01*
X173935128Y-97927224D01*
X173921613Y-97790000D01*
X173935128Y-97652776D01*
X173975155Y-97520825D01*
X174040155Y-97399219D01*
X174127630Y-97292630D01*
X174234219Y-97205155D01*
X174355825Y-97140155D01*
X174487776Y-97100128D01*
X174590610Y-97090000D01*
X174659390Y-97090000D01*
X174762224Y-97100128D01*
X174762224Y-97100128D01*
G37*
G36*
X150632224Y-97100128D02*
X150764175Y-97140155D01*
X150885781Y-97205155D01*
X150992370Y-97292630D01*
X151079845Y-97399219D01*
X151144845Y-97520825D01*
X151184872Y-97652776D01*
X151198387Y-97790000D01*
X151184872Y-97927224D01*
X151144845Y-98059175D01*
X151079845Y-98180781D01*
X150992370Y-98287370D01*
X150885781Y-98374845D01*
X150764175Y-98439845D01*
X150632224Y-98479872D01*
X150529390Y-98490000D01*
X150460610Y-98490000D01*
X150357776Y-98479872D01*
X150225825Y-98439845D01*
X150104219Y-98374845D01*
X149997630Y-98287370D01*
X149910155Y-98180781D01*
X149845155Y-98059175D01*
X149805128Y-97927224D01*
X149791613Y-97790000D01*
X149805128Y-97652776D01*
X149845155Y-97520825D01*
X149910155Y-97399219D01*
X149997630Y-97292630D01*
X150104219Y-97205155D01*
X150225825Y-97140155D01*
X150357776Y-97100128D01*
X150460610Y-97090000D01*
X150529390Y-97090000D01*
X150632224Y-97100128D01*
X150632224Y-97100128D01*
G37*
G36*
X178639183Y-97116900D02*
X178766574Y-97169668D01*
X178819685Y-97205155D01*
X178881225Y-97246275D01*
X178978725Y-97343775D01*
X179055332Y-97458426D01*
X179108100Y-97585817D01*
X179135000Y-97721055D01*
X179135000Y-97858945D01*
X179108100Y-97994183D01*
X179055332Y-98121574D01*
X178978726Y-98236224D01*
X178881224Y-98333726D01*
X178766574Y-98410332D01*
X178639183Y-98463100D01*
X178503945Y-98490000D01*
X178366055Y-98490000D01*
X178230817Y-98463100D01*
X178103426Y-98410332D01*
X177988776Y-98333726D01*
X177891274Y-98236224D01*
X177814668Y-98121574D01*
X177761900Y-97994183D01*
X177735000Y-97858945D01*
X177735000Y-97721055D01*
X177761900Y-97585817D01*
X177814668Y-97458426D01*
X177891275Y-97343775D01*
X177988775Y-97246275D01*
X178050316Y-97205155D01*
X178103426Y-97169668D01*
X178230817Y-97116900D01*
X178366055Y-97090000D01*
X178503945Y-97090000D01*
X178639183Y-97116900D01*
X178639183Y-97116900D01*
G37*
G36*
X143012224Y-97100128D02*
X143144175Y-97140155D01*
X143265781Y-97205155D01*
X143372370Y-97292630D01*
X143459845Y-97399219D01*
X143524845Y-97520825D01*
X143564872Y-97652776D01*
X143578387Y-97790000D01*
X143564872Y-97927224D01*
X143524845Y-98059175D01*
X143459845Y-98180781D01*
X143372370Y-98287370D01*
X143265781Y-98374845D01*
X143144175Y-98439845D01*
X143012224Y-98479872D01*
X142909390Y-98490000D01*
X142840610Y-98490000D01*
X142737776Y-98479872D01*
X142605825Y-98439845D01*
X142484219Y-98374845D01*
X142377630Y-98287370D01*
X142290155Y-98180781D01*
X142225155Y-98059175D01*
X142185128Y-97927224D01*
X142171613Y-97790000D01*
X142185128Y-97652776D01*
X142225155Y-97520825D01*
X142290155Y-97399219D01*
X142377630Y-97292630D01*
X142484219Y-97205155D01*
X142605825Y-97140155D01*
X142737776Y-97100128D01*
X142840610Y-97090000D01*
X142909390Y-97090000D01*
X143012224Y-97100128D01*
X143012224Y-97100128D01*
G37*
G36*
X167142224Y-97100128D02*
X167274175Y-97140155D01*
X167395781Y-97205155D01*
X167502370Y-97292630D01*
X167589845Y-97399219D01*
X167654845Y-97520825D01*
X167694872Y-97652776D01*
X167708387Y-97790000D01*
X167694872Y-97927224D01*
X167654845Y-98059175D01*
X167589845Y-98180781D01*
X167502370Y-98287370D01*
X167395781Y-98374845D01*
X167274175Y-98439845D01*
X167142224Y-98479872D01*
X167039390Y-98490000D01*
X166970610Y-98490000D01*
X166867776Y-98479872D01*
X166735825Y-98439845D01*
X166614219Y-98374845D01*
X166507630Y-98287370D01*
X166420155Y-98180781D01*
X166355155Y-98059175D01*
X166315128Y-97927224D01*
X166301613Y-97790000D01*
X166315128Y-97652776D01*
X166355155Y-97520825D01*
X166420155Y-97399219D01*
X166507630Y-97292630D01*
X166614219Y-97205155D01*
X166735825Y-97140155D01*
X166867776Y-97100128D01*
X166970610Y-97090000D01*
X167039390Y-97090000D01*
X167142224Y-97100128D01*
X167142224Y-97100128D01*
G37*
G36*
X139202224Y-97100128D02*
X139334175Y-97140155D01*
X139455781Y-97205155D01*
X139562370Y-97292630D01*
X139649845Y-97399219D01*
X139714845Y-97520825D01*
X139754872Y-97652776D01*
X139768387Y-97790000D01*
X139754872Y-97927224D01*
X139714845Y-98059175D01*
X139649845Y-98180781D01*
X139562370Y-98287370D01*
X139455781Y-98374845D01*
X139334175Y-98439845D01*
X139202224Y-98479872D01*
X139099390Y-98490000D01*
X139030610Y-98490000D01*
X138927776Y-98479872D01*
X138795825Y-98439845D01*
X138674219Y-98374845D01*
X138567630Y-98287370D01*
X138480155Y-98180781D01*
X138415155Y-98059175D01*
X138375128Y-97927224D01*
X138361613Y-97790000D01*
X138375128Y-97652776D01*
X138415155Y-97520825D01*
X138480155Y-97399219D01*
X138567630Y-97292630D01*
X138674219Y-97205155D01*
X138795825Y-97140155D01*
X138927776Y-97100128D01*
X139030610Y-97090000D01*
X139099390Y-97090000D01*
X139202224Y-97100128D01*
X139202224Y-97100128D01*
G37*
G36*
X139665000Y-95215000D02*
X138465000Y-95215000D01*
X138465000Y-94015000D01*
X139665000Y-94015000D01*
X139665000Y-95215000D01*
X139665000Y-95215000D01*
G37*
G36*
X177765000Y-94580000D02*
X176565000Y-94580000D01*
X176565000Y-93380000D01*
X177765000Y-93380000D01*
X177765000Y-94580000D01*
X177765000Y-94580000D01*
G37*
G36*
X172300639Y-91625916D02*
X172507986Y-91688815D01*
X172507988Y-91688816D01*
X172699084Y-91790958D01*
X172866581Y-91928419D01*
X173004042Y-92095916D01*
X173104408Y-92283690D01*
X173106185Y-92287014D01*
X173169084Y-92494361D01*
X173190322Y-92710000D01*
X173169084Y-92925639D01*
X173115955Y-93100780D01*
X173106184Y-93132988D01*
X173004042Y-93324084D01*
X172866581Y-93491581D01*
X172699084Y-93629042D01*
X172507988Y-93731184D01*
X172507986Y-93731185D01*
X172300639Y-93794084D01*
X172139038Y-93810000D01*
X172030962Y-93810000D01*
X171869361Y-93794084D01*
X171662014Y-93731185D01*
X171662012Y-93731184D01*
X171470916Y-93629042D01*
X171303419Y-93491581D01*
X171165958Y-93324084D01*
X171063816Y-93132988D01*
X171054046Y-93100780D01*
X171000916Y-92925639D01*
X170979678Y-92710000D01*
X171000916Y-92494361D01*
X171063815Y-92287014D01*
X171065592Y-92283690D01*
X171165958Y-92095916D01*
X171303419Y-91928419D01*
X171470916Y-91790958D01*
X171662012Y-91688816D01*
X171662014Y-91688815D01*
X171869361Y-91625916D01*
X172030962Y-91610000D01*
X172139038Y-91610000D01*
X172300639Y-91625916D01*
X172300639Y-91625916D01*
G37*
G36*
X165565000Y-93810000D02*
X163365000Y-93810000D01*
X163365000Y-91610000D01*
X165565000Y-91610000D01*
X165565000Y-93810000D01*
X165565000Y-93810000D01*
G37*
G36*
X158380000Y-93610000D02*
X156580000Y-93610000D01*
X156580000Y-91810000D01*
X158380000Y-91810000D01*
X158380000Y-93610000D01*
X158380000Y-93610000D01*
G37*
G36*
X160282521Y-91844586D02*
X160446309Y-91912429D01*
X160593720Y-92010926D01*
X160719074Y-92136280D01*
X160817571Y-92283691D01*
X160885414Y-92447479D01*
X160920000Y-92621356D01*
X160920000Y-92798644D01*
X160885414Y-92972521D01*
X160817571Y-93136309D01*
X160719074Y-93283720D01*
X160593720Y-93409074D01*
X160446309Y-93507571D01*
X160282521Y-93575414D01*
X160108644Y-93610000D01*
X159931356Y-93610000D01*
X159757479Y-93575414D01*
X159593691Y-93507571D01*
X159446280Y-93409074D01*
X159320926Y-93283720D01*
X159222429Y-93136309D01*
X159154586Y-92972521D01*
X159120000Y-92798644D01*
X159120000Y-92621356D01*
X159154586Y-92447479D01*
X159222429Y-92283691D01*
X159320926Y-92136280D01*
X159446280Y-92010926D01*
X159593691Y-91912429D01*
X159757479Y-91844586D01*
X159931356Y-91810000D01*
X160108644Y-91810000D01*
X160282521Y-91844586D01*
X160282521Y-91844586D01*
G37*
G36*
X153172224Y-92020128D02*
X153304175Y-92060155D01*
X153425781Y-92125155D01*
X153532370Y-92212630D01*
X153619845Y-92319219D01*
X153684845Y-92440825D01*
X153724872Y-92572776D01*
X153738387Y-92710000D01*
X153724872Y-92847224D01*
X153684845Y-92979175D01*
X153619845Y-93100781D01*
X153532370Y-93207370D01*
X153425781Y-93294845D01*
X153304175Y-93359845D01*
X153172224Y-93399872D01*
X153069390Y-93410000D01*
X153000610Y-93410000D01*
X152897776Y-93399872D01*
X152765825Y-93359845D01*
X152644219Y-93294845D01*
X152537630Y-93207370D01*
X152450155Y-93100781D01*
X152385155Y-92979175D01*
X152345128Y-92847224D01*
X152331613Y-92710000D01*
X152345128Y-92572776D01*
X152385155Y-92440825D01*
X152450155Y-92319219D01*
X152537630Y-92212630D01*
X152644219Y-92125155D01*
X152765825Y-92060155D01*
X152897776Y-92020128D01*
X153000610Y-92010000D01*
X153069390Y-92010000D01*
X153172224Y-92020128D01*
X153172224Y-92020128D01*
G37*
G36*
X145619183Y-92036900D02*
X145731169Y-92083287D01*
X145746574Y-92089668D01*
X145861224Y-92166274D01*
X145958726Y-92263776D01*
X145974253Y-92287014D01*
X146035332Y-92378426D01*
X146088100Y-92505817D01*
X146115000Y-92641055D01*
X146115000Y-92778945D01*
X146088100Y-92914183D01*
X146053597Y-92997478D01*
X146035332Y-93041574D01*
X145958726Y-93156224D01*
X145861224Y-93253726D01*
X145755928Y-93324082D01*
X145746574Y-93330332D01*
X145619183Y-93383100D01*
X145483945Y-93410000D01*
X145346055Y-93410000D01*
X145210817Y-93383100D01*
X145083426Y-93330332D01*
X145074072Y-93324082D01*
X144968776Y-93253726D01*
X144871274Y-93156224D01*
X144794668Y-93041574D01*
X144776403Y-92997478D01*
X144741900Y-92914183D01*
X144715000Y-92778945D01*
X144715000Y-92641055D01*
X144741900Y-92505817D01*
X144794668Y-92378426D01*
X144855747Y-92287014D01*
X144871274Y-92263776D01*
X144968776Y-92166274D01*
X145083426Y-92089668D01*
X145098831Y-92083287D01*
X145210817Y-92036900D01*
X145346055Y-92010000D01*
X145483945Y-92010000D01*
X145619183Y-92036900D01*
X145619183Y-92036900D01*
G37*
G36*
X139240012Y-92038057D02*
X139349207Y-92083287D01*
X139447481Y-92148952D01*
X139531048Y-92232519D01*
X139596713Y-92330793D01*
X139641943Y-92439988D01*
X139665000Y-92555904D01*
X139665000Y-92674096D01*
X139641943Y-92790012D01*
X139596713Y-92899207D01*
X139531048Y-92997481D01*
X139447481Y-93081048D01*
X139349207Y-93146713D01*
X139240012Y-93191943D01*
X139124096Y-93215000D01*
X139005904Y-93215000D01*
X138889988Y-93191943D01*
X138780793Y-93146713D01*
X138682519Y-93081048D01*
X138598952Y-92997481D01*
X138533287Y-92899207D01*
X138488057Y-92790012D01*
X138465000Y-92674096D01*
X138465000Y-92555904D01*
X138488057Y-92439988D01*
X138533287Y-92330793D01*
X138598952Y-92232519D01*
X138682519Y-92148952D01*
X138780793Y-92083287D01*
X138889988Y-92038057D01*
X139005904Y-92015000D01*
X139124096Y-92015000D01*
X139240012Y-92038057D01*
X139240012Y-92038057D01*
G37*
G36*
X177340012Y-91403057D02*
X177449207Y-91448287D01*
X177547481Y-91513952D01*
X177631048Y-91597519D01*
X177696713Y-91695793D01*
X177741943Y-91804988D01*
X177765000Y-91920904D01*
X177765000Y-92039096D01*
X177741943Y-92155012D01*
X177696713Y-92264207D01*
X177631048Y-92362481D01*
X177547481Y-92446048D01*
X177449207Y-92511713D01*
X177340012Y-92556943D01*
X177224096Y-92580000D01*
X177105904Y-92580000D01*
X176989988Y-92556943D01*
X176880793Y-92511713D01*
X176782519Y-92446048D01*
X176698952Y-92362481D01*
X176633287Y-92264207D01*
X176588057Y-92155012D01*
X176565000Y-92039096D01*
X176565000Y-91920904D01*
X176588057Y-91804988D01*
X176633287Y-91695793D01*
X176698952Y-91597519D01*
X176782519Y-91513952D01*
X176880793Y-91448287D01*
X176989988Y-91403057D01*
X177105904Y-91380000D01*
X177224096Y-91380000D01*
X177340012Y-91403057D01*
X177340012Y-91403057D01*
G37*
G36*
X136889518Y-85793344D02*
X137116946Y-85887548D01*
X137321625Y-86024310D01*
X137495690Y-86198375D01*
X137632452Y-86403054D01*
X137726656Y-86630482D01*
X137774680Y-86871917D01*
X137774680Y-87118083D01*
X137726656Y-87359518D01*
X137632452Y-87586946D01*
X137495690Y-87791625D01*
X137321625Y-87965690D01*
X137116946Y-88102452D01*
X136889518Y-88196656D01*
X136648083Y-88244680D01*
X136401917Y-88244680D01*
X136160482Y-88196656D01*
X135933054Y-88102452D01*
X135728375Y-87965690D01*
X135554310Y-87791625D01*
X135417548Y-87586946D01*
X135323344Y-87359518D01*
X135275320Y-87118083D01*
X135275320Y-86871917D01*
X135323344Y-86630482D01*
X135417548Y-86403054D01*
X135554310Y-86198375D01*
X135728375Y-86024310D01*
X135933054Y-85887548D01*
X136160482Y-85793344D01*
X136401917Y-85745320D01*
X136648083Y-85745320D01*
X136889518Y-85793344D01*
X136889518Y-85793344D01*
G37*
G36*
X146664680Y-88244680D02*
X144165320Y-88244680D01*
X144165320Y-85745320D01*
X146664680Y-85745320D01*
X146664680Y-88244680D01*
X146664680Y-88244680D01*
G37*
G36*
X148954518Y-85793344D02*
X149181946Y-85887548D01*
X149386625Y-86024310D01*
X149560690Y-86198375D01*
X149697452Y-86403054D01*
X149791656Y-86630482D01*
X149839680Y-86871917D01*
X149839680Y-87118083D01*
X149791656Y-87359518D01*
X149697452Y-87586946D01*
X149560690Y-87791625D01*
X149386625Y-87965690D01*
X149181946Y-88102452D01*
X148954518Y-88196656D01*
X148713083Y-88244680D01*
X148466917Y-88244680D01*
X148225482Y-88196656D01*
X147998054Y-88102452D01*
X147793375Y-87965690D01*
X147619310Y-87791625D01*
X147482548Y-87586946D01*
X147388344Y-87359518D01*
X147340320Y-87118083D01*
X147340320Y-86871917D01*
X147388344Y-86630482D01*
X147482548Y-86403054D01*
X147619310Y-86198375D01*
X147793375Y-86024310D01*
X147998054Y-85887548D01*
X148225482Y-85793344D01*
X148466917Y-85745320D01*
X148713083Y-85745320D01*
X148954518Y-85793344D01*
X148954518Y-85793344D01*
G37*
G36*
X152129518Y-85793344D02*
X152356946Y-85887548D01*
X152561625Y-86024310D01*
X152735690Y-86198375D01*
X152872452Y-86403054D01*
X152966656Y-86630482D01*
X153014680Y-86871917D01*
X153014680Y-87118083D01*
X152966656Y-87359518D01*
X152872452Y-87586946D01*
X152735690Y-87791625D01*
X152561625Y-87965690D01*
X152356946Y-88102452D01*
X152129518Y-88196656D01*
X151888083Y-88244680D01*
X151641917Y-88244680D01*
X151400482Y-88196656D01*
X151173054Y-88102452D01*
X150968375Y-87965690D01*
X150794310Y-87791625D01*
X150657548Y-87586946D01*
X150563344Y-87359518D01*
X150515320Y-87118083D01*
X150515320Y-86871917D01*
X150563344Y-86630482D01*
X150657548Y-86403054D01*
X150794310Y-86198375D01*
X150968375Y-86024310D01*
X151173054Y-85887548D01*
X151400482Y-85793344D01*
X151641917Y-85745320D01*
X151888083Y-85745320D01*
X152129518Y-85793344D01*
X152129518Y-85793344D01*
G37*
G36*
X166099518Y-85793344D02*
X166326946Y-85887548D01*
X166531625Y-86024310D01*
X166705690Y-86198375D01*
X166842452Y-86403054D01*
X166936656Y-86630482D01*
X166984680Y-86871917D01*
X166984680Y-87118083D01*
X166936656Y-87359518D01*
X166842452Y-87586946D01*
X166705690Y-87791625D01*
X166531625Y-87965690D01*
X166326946Y-88102452D01*
X166099518Y-88196656D01*
X165858083Y-88244680D01*
X165611917Y-88244680D01*
X165370482Y-88196656D01*
X165143054Y-88102452D01*
X164938375Y-87965690D01*
X164764310Y-87791625D01*
X164627548Y-87586946D01*
X164533344Y-87359518D01*
X164485320Y-87118083D01*
X164485320Y-86871917D01*
X164533344Y-86630482D01*
X164627548Y-86403054D01*
X164764310Y-86198375D01*
X164938375Y-86024310D01*
X165143054Y-85887548D01*
X165370482Y-85793344D01*
X165611917Y-85745320D01*
X165858083Y-85745320D01*
X166099518Y-85793344D01*
X166099518Y-85793344D01*
G37*
G36*
X169274518Y-85793344D02*
X169501946Y-85887548D01*
X169706625Y-86024310D01*
X169880690Y-86198375D01*
X170017452Y-86403054D01*
X170111656Y-86630482D01*
X170159680Y-86871917D01*
X170159680Y-87118083D01*
X170111656Y-87359518D01*
X170017452Y-87586946D01*
X169880690Y-87791625D01*
X169706625Y-87965690D01*
X169501946Y-88102452D01*
X169274518Y-88196656D01*
X169033083Y-88244680D01*
X168786917Y-88244680D01*
X168545482Y-88196656D01*
X168318054Y-88102452D01*
X168113375Y-87965690D01*
X167939310Y-87791625D01*
X167802548Y-87586946D01*
X167708344Y-87359518D01*
X167660320Y-87118083D01*
X167660320Y-86871917D01*
X167708344Y-86630482D01*
X167802548Y-86403054D01*
X167939310Y-86198375D01*
X168113375Y-86024310D01*
X168318054Y-85887548D01*
X168545482Y-85793344D01*
X168786917Y-85745320D01*
X169033083Y-85745320D01*
X169274518Y-85793344D01*
X169274518Y-85793344D01*
G37*
G36*
X140699518Y-85793344D02*
X140926946Y-85887548D01*
X141131625Y-86024310D01*
X141305690Y-86198375D01*
X141442452Y-86403054D01*
X141536656Y-86630482D01*
X141584680Y-86871917D01*
X141584680Y-87118083D01*
X141536656Y-87359518D01*
X141442452Y-87586946D01*
X141305690Y-87791625D01*
X141131625Y-87965690D01*
X140926946Y-88102452D01*
X140699518Y-88196656D01*
X140458083Y-88244680D01*
X140211917Y-88244680D01*
X139970482Y-88196656D01*
X139743054Y-88102452D01*
X139538375Y-87965690D01*
X139364310Y-87791625D01*
X139227548Y-87586946D01*
X139133344Y-87359518D01*
X139085320Y-87118083D01*
X139085320Y-86871917D01*
X139133344Y-86630482D01*
X139227548Y-86403054D01*
X139364310Y-86198375D01*
X139538375Y-86024310D01*
X139743054Y-85887548D01*
X139970482Y-85793344D01*
X140211917Y-85745320D01*
X140458083Y-85745320D01*
X140699518Y-85793344D01*
X140699518Y-85793344D01*
G37*
G36*
X161904680Y-88244680D02*
X159405320Y-88244680D01*
X159405320Y-85745320D01*
X161904680Y-85745320D01*
X161904680Y-88244680D01*
X161904680Y-88244680D01*
G37*
G36*
X157209518Y-85793344D02*
X157436946Y-85887548D01*
X157641625Y-86024310D01*
X157815690Y-86198375D01*
X157952452Y-86403054D01*
X158046656Y-86630482D01*
X158094680Y-86871917D01*
X158094680Y-87118083D01*
X158046656Y-87359518D01*
X157952452Y-87586946D01*
X157815690Y-87791625D01*
X157641625Y-87965690D01*
X157436946Y-88102452D01*
X157209518Y-88196656D01*
X156968083Y-88244680D01*
X156721917Y-88244680D01*
X156480482Y-88196656D01*
X156253054Y-88102452D01*
X156048375Y-87965690D01*
X155874310Y-87791625D01*
X155737548Y-87586946D01*
X155643344Y-87359518D01*
X155595320Y-87118083D01*
X155595320Y-86871917D01*
X155643344Y-86630482D01*
X155737548Y-86403054D01*
X155874310Y-86198375D01*
X156048375Y-86024310D01*
X156253054Y-85887548D01*
X156480482Y-85793344D01*
X156721917Y-85745320D01*
X156968083Y-85745320D01*
X157209518Y-85793344D01*
X157209518Y-85793344D01*
G37*
G36*
X181339518Y-85793344D02*
X181566946Y-85887548D01*
X181771625Y-86024310D01*
X181945690Y-86198375D01*
X182082452Y-86403054D01*
X182176656Y-86630482D01*
X182224680Y-86871917D01*
X182224680Y-87118083D01*
X182176656Y-87359518D01*
X182082452Y-87586946D01*
X181945690Y-87791625D01*
X181771625Y-87965690D01*
X181566946Y-88102452D01*
X181339518Y-88196656D01*
X181098083Y-88244680D01*
X180851917Y-88244680D01*
X180610482Y-88196656D01*
X180383054Y-88102452D01*
X180178375Y-87965690D01*
X180004310Y-87791625D01*
X179867548Y-87586946D01*
X179773344Y-87359518D01*
X179725320Y-87118083D01*
X179725320Y-86871917D01*
X179773344Y-86630482D01*
X179867548Y-86403054D01*
X180004310Y-86198375D01*
X180178375Y-86024310D01*
X180383054Y-85887548D01*
X180610482Y-85793344D01*
X180851917Y-85745320D01*
X181098083Y-85745320D01*
X181339518Y-85793344D01*
X181339518Y-85793344D01*
G37*
G36*
X177529518Y-85793344D02*
X177756946Y-85887548D01*
X177961625Y-86024310D01*
X178135690Y-86198375D01*
X178272452Y-86403054D01*
X178366656Y-86630482D01*
X178414680Y-86871917D01*
X178414680Y-87118083D01*
X178366656Y-87359518D01*
X178272452Y-87586946D01*
X178135690Y-87791625D01*
X177961625Y-87965690D01*
X177756946Y-88102452D01*
X177529518Y-88196656D01*
X177288083Y-88244680D01*
X177041917Y-88244680D01*
X176800482Y-88196656D01*
X176573054Y-88102452D01*
X176368375Y-87965690D01*
X176194310Y-87791625D01*
X176057548Y-87586946D01*
X175963344Y-87359518D01*
X175915320Y-87118083D01*
X175915320Y-86871917D01*
X175963344Y-86630482D01*
X176057548Y-86403054D01*
X176194310Y-86198375D01*
X176368375Y-86024310D01*
X176573054Y-85887548D01*
X176800482Y-85793344D01*
X177041917Y-85745320D01*
X177288083Y-85745320D01*
X177529518Y-85793344D01*
X177529518Y-85793344D01*
G37*
G36*
X173334680Y-88244680D02*
X170835320Y-88244680D01*
X170835320Y-85745320D01*
X173334680Y-85745320D01*
X173334680Y-88244680D01*
X173334680Y-88244680D01*
G37*
M02*
