G04 #@! TF.GenerationSoftware,KiCad,Pcbnew,5.0.2-bee76a0~70~ubuntu16.04.1*
G04 #@! TF.CreationDate,2019-03-31T15:05:16-05:00*
G04 #@! TF.ProjectId,Bloop2,426c6f6f-7032-42e6-9b69-6361645f7063,rev?*
G04 #@! TF.SameCoordinates,Original*
G04 #@! TF.FileFunction,Copper,L2,Bot*
G04 #@! TF.FilePolarity,Positive*
%FSLAX46Y46*%
G04 Gerber Fmt 4.6, Leading zero omitted, Abs format (unit mm)*
G04 Created by KiCad (PCBNEW 5.0.2-bee76a0~70~ubuntu16.04.1) date Sun 31 Mar 2019 03:05:16 PM CDT*
%MOMM*%
%LPD*%
G01*
G04 APERTURE LIST*
G04 #@! TA.AperFunction,ComponentPad*
%ADD10C,2.499360*%
G04 #@! TD*
G04 #@! TA.AperFunction,ComponentPad*
%ADD11C,1.600000*%
G04 #@! TD*
G04 #@! TA.AperFunction,ComponentPad*
%ADD12R,1.600000X1.600000*%
G04 #@! TD*
G04 #@! TA.AperFunction,ComponentPad*
%ADD13R,1.800000X1.800000*%
G04 #@! TD*
G04 #@! TA.AperFunction,ComponentPad*
%ADD14C,1.800000*%
G04 #@! TD*
G04 #@! TA.AperFunction,ComponentPad*
%ADD15O,1.400000X1.400000*%
G04 #@! TD*
G04 #@! TA.AperFunction,ComponentPad*
%ADD16C,1.400000*%
G04 #@! TD*
G04 #@! TA.AperFunction,ComponentPad*
%ADD17O,1.600000X1.600000*%
G04 #@! TD*
G04 #@! TA.AperFunction,ComponentPad*
%ADD18R,2.200000X2.200000*%
G04 #@! TD*
G04 #@! TA.AperFunction,ComponentPad*
%ADD19O,2.200000X2.200000*%
G04 #@! TD*
G04 #@! TA.AperFunction,ComponentPad*
%ADD20R,2.499360X2.499360*%
G04 #@! TD*
G04 #@! TA.AperFunction,ComponentPad*
%ADD21C,2.500000*%
G04 #@! TD*
G04 #@! TA.AperFunction,ComponentPad*
%ADD22R,2.500000X2.500000*%
G04 #@! TD*
G04 #@! TA.AperFunction,ComponentPad*
%ADD23R,1.200000X1.200000*%
G04 #@! TD*
G04 #@! TA.AperFunction,ComponentPad*
%ADD24C,1.200000*%
G04 #@! TD*
G04 #@! TA.AperFunction,Conductor*
%ADD25C,0.500000*%
G04 #@! TD*
G04 #@! TA.AperFunction,Conductor*
%ADD26C,0.254000*%
G04 #@! TD*
G04 APERTURE END LIST*
D10*
G04 #@! TO.P,J5,1*
G04 #@! TO.N,Net-(J5-Pad1)*
X177165000Y-86995000D03*
G04 #@! TD*
D11*
G04 #@! TO.P,C1,2*
G04 #@! TO.N,GND*
X143510000Y-123785000D03*
D12*
G04 #@! TO.P,C1,1*
G04 #@! TO.N,+9V*
X143510000Y-121285000D03*
G04 #@! TD*
G04 #@! TO.P,C2,1*
G04 #@! TO.N,VREF*
X173990000Y-121285000D03*
D11*
G04 #@! TO.P,C2,2*
G04 #@! TO.N,GND*
X173990000Y-123785000D03*
G04 #@! TD*
D13*
G04 #@! TO.P,D1,1*
G04 #@! TO.N,Net-(D1-Pad1)*
X157480000Y-92710000D03*
D14*
G04 #@! TO.P,D1,2*
G04 #@! TO.N,+9V*
X160020000Y-92710000D03*
G04 #@! TD*
D15*
G04 #@! TO.P,R1,2*
G04 #@! TO.N,VREF*
X139065000Y-97790000D03*
D16*
G04 #@! TO.P,R1,1*
G04 #@! TO.N,+9V*
X139065000Y-105410000D03*
G04 #@! TD*
D15*
G04 #@! TO.P,R2,2*
G04 #@! TO.N,GND*
X178435000Y-105410000D03*
D16*
G04 #@! TO.P,R2,1*
G04 #@! TO.N,VREF*
X178435000Y-97790000D03*
G04 #@! TD*
G04 #@! TO.P,R3,1*
G04 #@! TO.N,Net-(C3-Pad2)*
X146685000Y-116840000D03*
D15*
G04 #@! TO.P,R3,2*
G04 #@! TO.N,GND*
X139065000Y-116840000D03*
G04 #@! TD*
D16*
G04 #@! TO.P,R4,1*
G04 #@! TO.N,Net-(C4-Pad2)*
X170815000Y-116840000D03*
D15*
G04 #@! TO.P,R4,2*
G04 #@! TO.N,GND*
X178435000Y-116840000D03*
G04 #@! TD*
G04 #@! TO.P,R5,2*
G04 #@! TO.N,VREF*
X142875000Y-97790000D03*
D16*
G04 #@! TO.P,R5,1*
G04 #@! TO.N,Net-(C3-Pad1)*
X142875000Y-105410000D03*
G04 #@! TD*
D15*
G04 #@! TO.P,R6,2*
G04 #@! TO.N,VREF*
X174625000Y-97790000D03*
D16*
G04 #@! TO.P,R6,1*
G04 #@! TO.N,Net-(C4-Pad1)*
X174625000Y-105410000D03*
G04 #@! TD*
G04 #@! TO.P,R7,1*
G04 #@! TO.N,Net-(R7-Pad1)*
X146685000Y-105410000D03*
D15*
G04 #@! TO.P,R7,2*
G04 #@! TO.N,Net-(C5-Pad1)*
X146685000Y-97790000D03*
G04 #@! TD*
D16*
G04 #@! TO.P,R8,1*
G04 #@! TO.N,Net-(R10-Pad1)*
X170815000Y-105410000D03*
D15*
G04 #@! TO.P,R8,2*
G04 #@! TO.N,Net-(C6-Pad1)*
X170815000Y-97790000D03*
G04 #@! TD*
D16*
G04 #@! TO.P,R9,1*
G04 #@! TO.N,Net-(R7-Pad1)*
X150495000Y-105410000D03*
D15*
G04 #@! TO.P,R9,2*
G04 #@! TO.N,Net-(C7-Pad1)*
X150495000Y-97790000D03*
G04 #@! TD*
D12*
G04 #@! TO.P,U1,1*
G04 #@! TO.N,Net-(C7-Pad1)*
X154940000Y-97790000D03*
D17*
G04 #@! TO.P,U1,5*
G04 #@! TO.N,Net-(C4-Pad1)*
X162560000Y-105410000D03*
G04 #@! TO.P,U1,2*
G04 #@! TO.N,Net-(R7-Pad1)*
X154940000Y-100330000D03*
G04 #@! TO.P,U1,6*
G04 #@! TO.N,Net-(R10-Pad1)*
X162560000Y-102870000D03*
G04 #@! TO.P,U1,3*
G04 #@! TO.N,Net-(C3-Pad1)*
X154940000Y-102870000D03*
G04 #@! TO.P,U1,7*
G04 #@! TO.N,Net-(C8-Pad1)*
X162560000Y-100330000D03*
G04 #@! TO.P,U1,4*
G04 #@! TO.N,GND*
X154940000Y-105410000D03*
G04 #@! TO.P,U1,8*
G04 #@! TO.N,+9V*
X162560000Y-97790000D03*
G04 #@! TD*
D18*
G04 #@! TO.P,D2,1*
G04 #@! TO.N,+9V*
X164465000Y-92710000D03*
D19*
G04 #@! TO.P,D2,2*
G04 #@! TO.N,GND*
X172085000Y-92710000D03*
G04 #@! TD*
D20*
G04 #@! TO.P,J1,1*
G04 #@! TO.N,+9V*
X160655000Y-86995000D03*
D10*
G04 #@! TO.P,J1,2*
G04 #@! TO.N,GND*
X156845000Y-86995000D03*
G04 #@! TD*
G04 #@! TO.P,J3,1*
G04 #@! TO.N,Net-(C4-Pad2)*
X180975000Y-86995000D03*
G04 #@! TD*
G04 #@! TO.P,J4,1*
G04 #@! TO.N,Net-(J4-Pad1)*
X140335000Y-86995000D03*
G04 #@! TD*
G04 #@! TO.P,J2,1*
G04 #@! TO.N,Net-(J2-Pad1)*
X136525000Y-86995000D03*
G04 #@! TD*
D21*
G04 #@! TO.P,SW1,3*
G04 #@! TO.N,GND*
X158750000Y-112675000D03*
D22*
G04 #@! TO.P,SW1,1*
G04 #@! TO.N,N/C*
X158750000Y-122275000D03*
D21*
G04 #@! TO.P,SW1,2*
G04 #@! TO.N,Net-(RLED1-Pad2)*
X158750000Y-117475000D03*
G04 #@! TD*
G04 #@! TO.P,SW2,2*
G04 #@! TO.N,Net-(J2-Pad1)*
X153450000Y-117475000D03*
D22*
G04 #@! TO.P,SW2,1*
G04 #@! TO.N,BYPASS*
X153450000Y-122275000D03*
D21*
G04 #@! TO.P,SW2,3*
G04 #@! TO.N,Net-(C3-Pad2)*
X153450000Y-112675000D03*
G04 #@! TD*
G04 #@! TO.P,SW3,2*
G04 #@! TO.N,Net-(J5-Pad1)*
X164050000Y-117475000D03*
D22*
G04 #@! TO.P,SW3,1*
G04 #@! TO.N,BYPASS*
X164050000Y-122275000D03*
D21*
G04 #@! TO.P,SW3,3*
G04 #@! TO.N,Net-(RV2-Pad2)*
X164050000Y-112675000D03*
G04 #@! TD*
D20*
G04 #@! TO.P,RV1,1*
G04 #@! TO.N,Net-(C7-Pad2)*
X145415000Y-86995000D03*
D10*
G04 #@! TO.P,RV1,2*
G04 #@! TO.N,Net-(J4-Pad1)*
X148590000Y-86995000D03*
G04 #@! TO.P,RV1,3*
G04 #@! TO.N,GND*
X151765000Y-86995000D03*
G04 #@! TD*
G04 #@! TO.P,RV2,3*
G04 #@! TO.N,GND*
X165735000Y-86995000D03*
G04 #@! TO.P,RV2,2*
G04 #@! TO.N,Net-(RV2-Pad2)*
X168910000Y-86995000D03*
D20*
G04 #@! TO.P,RV2,1*
G04 #@! TO.N,Net-(C8-Pad2)*
X172085000Y-86995000D03*
G04 #@! TD*
D11*
G04 #@! TO.P,C3,2*
G04 #@! TO.N,Net-(C3-Pad2)*
X145415000Y-113585000D03*
G04 #@! TO.P,C3,1*
G04 #@! TO.N,Net-(C3-Pad1)*
X145415000Y-108585000D03*
G04 #@! TD*
G04 #@! TO.P,C4,2*
G04 #@! TO.N,Net-(C4-Pad2)*
X172085000Y-113585000D03*
G04 #@! TO.P,C4,1*
G04 #@! TO.N,Net-(C4-Pad1)*
X172085000Y-108585000D03*
G04 #@! TD*
D12*
G04 #@! TO.P,C5,1*
G04 #@! TO.N,Net-(C5-Pad1)*
X139065000Y-109855000D03*
D11*
G04 #@! TO.P,C5,2*
G04 #@! TO.N,GND*
X139065000Y-112355000D03*
G04 #@! TD*
G04 #@! TO.P,C6,2*
G04 #@! TO.N,GND*
X178435000Y-112355000D03*
D12*
G04 #@! TO.P,C6,1*
G04 #@! TO.N,Net-(C6-Pad1)*
X178435000Y-109855000D03*
G04 #@! TD*
D15*
G04 #@! TO.P,R10,2*
G04 #@! TO.N,Net-(C8-Pad1)*
X167005000Y-97790000D03*
D16*
G04 #@! TO.P,R10,1*
G04 #@! TO.N,Net-(R10-Pad1)*
X167005000Y-105410000D03*
G04 #@! TD*
G04 #@! TO.P,RLED1,1*
G04 #@! TO.N,Net-(D1-Pad1)*
X145415000Y-92710000D03*
D15*
G04 #@! TO.P,RLED1,2*
G04 #@! TO.N,Net-(RLED1-Pad2)*
X153035000Y-92710000D03*
G04 #@! TD*
D23*
G04 #@! TO.P,C7,1*
G04 #@! TO.N,Net-(C7-Pad1)*
X139065000Y-94615000D03*
D24*
G04 #@! TO.P,C7,2*
G04 #@! TO.N,Net-(C7-Pad2)*
X139065000Y-92615000D03*
G04 #@! TD*
G04 #@! TO.P,C8,2*
G04 #@! TO.N,Net-(C8-Pad2)*
X177165000Y-91980000D03*
D23*
G04 #@! TO.P,C8,1*
G04 #@! TO.N,Net-(C8-Pad1)*
X177165000Y-93980000D03*
G04 #@! TD*
D25*
G04 #@! TO.N,+9V*
X164465000Y-94310000D02*
X162560000Y-96215000D01*
X164465000Y-92710000D02*
X164465000Y-94310000D01*
X162560000Y-96215000D02*
X162560000Y-97790000D01*
G04 #@! TO.N,Net-(C4-Pad2)*
X180975000Y-88762314D02*
X180975000Y-86995000D01*
X178255003Y-114384999D02*
X180975000Y-111665002D01*
X172884999Y-114384999D02*
X178255003Y-114384999D01*
X180975000Y-111665002D02*
X180975000Y-88762314D01*
X172085000Y-113585000D02*
X172884999Y-114384999D01*
G04 #@! TO.N,Net-(C6-Pad1)*
X171514999Y-98489999D02*
X170815000Y-97790000D01*
X175775001Y-102750001D02*
X171514999Y-98489999D01*
X175775001Y-105895001D02*
X175775001Y-102750001D01*
X178435000Y-108555000D02*
X175775001Y-105895001D01*
X178435000Y-109855000D02*
X178435000Y-108555000D01*
G04 #@! TO.N,Net-(J5-Pad1)*
X172222686Y-90170000D02*
X170180000Y-92212686D01*
X170180000Y-92212686D02*
X170180000Y-92912998D01*
X170180000Y-92912998D02*
X165750001Y-97342997D01*
X165750001Y-115774999D02*
X164050000Y-117475000D01*
X165750001Y-97342997D02*
X165750001Y-115774999D01*
X173990000Y-90170000D02*
X177165000Y-86995000D01*
X172222686Y-90170000D02*
X173990000Y-90170000D01*
G04 #@! TO.N,Net-(RV2-Pad2)*
X162800001Y-111425001D02*
X162800001Y-111365001D01*
X164050000Y-112675000D02*
X162800001Y-111425001D01*
X162800001Y-111365001D02*
X160655000Y-109220000D01*
X167660321Y-88244679D02*
X168910000Y-86995000D01*
X167210319Y-88694681D02*
X167660321Y-88244679D01*
X165470317Y-88694681D02*
X167210319Y-88694681D01*
X162914999Y-91249999D02*
X165470317Y-88694681D01*
X162914999Y-94350001D02*
X162914999Y-91249999D01*
X160655000Y-96610000D02*
X162914999Y-94350001D01*
X160655000Y-109220000D02*
X160655000Y-96610000D01*
G04 #@! TO.N,Net-(J2-Pad1)*
X151664999Y-115689999D02*
X152200001Y-116225001D01*
X152200001Y-116225001D02*
X153450000Y-117475000D01*
X140549997Y-115689999D02*
X151664999Y-115689999D01*
X136525000Y-111665002D02*
X140549997Y-115689999D01*
X136525000Y-86995000D02*
X136525000Y-111665002D01*
G04 #@! TO.N,Net-(J4-Pad1)*
X146890319Y-88694681D02*
X142034681Y-88694681D01*
X141584679Y-88244679D02*
X140335000Y-86995000D01*
X142034681Y-88694681D02*
X141584679Y-88244679D01*
X148590000Y-86995000D02*
X146890319Y-88694681D01*
G04 #@! TO.N,Net-(C7-Pad1)*
X139913528Y-94710000D02*
X139065000Y-94710000D01*
X147415000Y-94710000D02*
X139065000Y-94710000D01*
X150495000Y-97790000D02*
X147415000Y-94710000D01*
G04 #@! TO.N,Net-(C8-Pad1)*
X167005000Y-97790000D02*
X170180000Y-94615000D01*
X175776472Y-94615000D02*
X170180000Y-94615000D01*
X176316472Y-94075000D02*
X175776472Y-94615000D01*
X177165000Y-94075000D02*
X176316472Y-94075000D01*
G04 #@! TO.N,Net-(RLED1-Pad2)*
X157049999Y-96724999D02*
X153035000Y-92710000D01*
X158750000Y-117475000D02*
X157049999Y-115774999D01*
X157049999Y-115774999D02*
X157049999Y-96724999D01*
G04 #@! TD*
D26*
G04 #@! TO.N,GND*
G36*
X182780001Y-86427751D02*
X182572755Y-85927415D01*
X182042585Y-85397245D01*
X181349886Y-85110320D01*
X180600114Y-85110320D01*
X179907415Y-85397245D01*
X179377245Y-85927415D01*
X179090320Y-86620114D01*
X179090320Y-87369886D01*
X179377245Y-88062585D01*
X179907415Y-88592755D01*
X180090000Y-88668384D01*
X180090000Y-88849478D01*
X180090001Y-88849483D01*
X180090000Y-111298423D01*
X179717733Y-111670690D01*
X179688864Y-111600995D01*
X179442745Y-111526861D01*
X178614605Y-112355000D01*
X178628748Y-112369143D01*
X178449143Y-112548748D01*
X178435000Y-112534605D01*
X177606861Y-113362745D01*
X177648204Y-113499999D01*
X173520000Y-113499999D01*
X173520000Y-113299561D01*
X173301534Y-112772138D01*
X172897862Y-112368466D01*
X172370439Y-112150000D01*
X171799561Y-112150000D01*
X171272138Y-112368466D01*
X170868466Y-112772138D01*
X170650000Y-113299561D01*
X170650000Y-113870439D01*
X170868466Y-114397862D01*
X171272138Y-114801534D01*
X171799561Y-115020000D01*
X172244913Y-115020000D01*
X172246950Y-115023048D01*
X172320843Y-115072422D01*
X172320844Y-115072423D01*
X172343521Y-115087575D01*
X172539689Y-115218651D01*
X172797834Y-115269999D01*
X172797838Y-115269999D01*
X172884998Y-115287336D01*
X172972158Y-115269999D01*
X178167842Y-115269999D01*
X178255003Y-115287336D01*
X178342164Y-115269999D01*
X178342168Y-115269999D01*
X178600313Y-115218651D01*
X178893052Y-115023048D01*
X178942428Y-114949152D01*
X181539156Y-112352425D01*
X181613049Y-112303051D01*
X181662425Y-112229156D01*
X181808652Y-112010312D01*
X181812860Y-111989155D01*
X181860000Y-111752167D01*
X181860000Y-111752163D01*
X181877337Y-111665002D01*
X181860000Y-111577841D01*
X181860000Y-88668384D01*
X182042585Y-88592755D01*
X182572755Y-88062585D01*
X182780001Y-87562249D01*
X182780000Y-119915000D01*
X179142388Y-119915000D01*
X179070000Y-119900601D01*
X178997612Y-119915000D01*
X178783217Y-119957646D01*
X178540095Y-120120095D01*
X178377646Y-120363217D01*
X178320601Y-120650000D01*
X178335001Y-120722393D01*
X178335000Y-126265000D01*
X139165000Y-126265000D01*
X139165000Y-124792745D01*
X142681861Y-124792745D01*
X142755995Y-125038864D01*
X143293223Y-125231965D01*
X143863454Y-125204778D01*
X144264005Y-125038864D01*
X144338139Y-124792745D01*
X173161861Y-124792745D01*
X173235995Y-125038864D01*
X173773223Y-125231965D01*
X174343454Y-125204778D01*
X174744005Y-125038864D01*
X174818139Y-124792745D01*
X173990000Y-123964605D01*
X173161861Y-124792745D01*
X144338139Y-124792745D01*
X143510000Y-123964605D01*
X142681861Y-124792745D01*
X139165000Y-124792745D01*
X139165000Y-123568223D01*
X142063035Y-123568223D01*
X142090222Y-124138454D01*
X142256136Y-124539005D01*
X142502255Y-124613139D01*
X143330395Y-123785000D01*
X143689605Y-123785000D01*
X144517745Y-124613139D01*
X144763864Y-124539005D01*
X144956965Y-124001777D01*
X144929778Y-123431546D01*
X144763864Y-123030995D01*
X144517745Y-122956861D01*
X143689605Y-123785000D01*
X143330395Y-123785000D01*
X142502255Y-122956861D01*
X142256136Y-123030995D01*
X142063035Y-123568223D01*
X139165000Y-123568223D01*
X139165000Y-120722387D01*
X139179399Y-120650000D01*
X139146579Y-120485000D01*
X142062560Y-120485000D01*
X142062560Y-122085000D01*
X142111843Y-122332765D01*
X142252191Y-122542809D01*
X142462235Y-122683157D01*
X142696187Y-122729693D01*
X142681861Y-122777255D01*
X143510000Y-123605395D01*
X144338139Y-122777255D01*
X144323813Y-122729693D01*
X144557765Y-122683157D01*
X144767809Y-122542809D01*
X144908157Y-122332765D01*
X144957440Y-122085000D01*
X144957440Y-121025000D01*
X151552560Y-121025000D01*
X151552560Y-123525000D01*
X151601843Y-123772765D01*
X151742191Y-123982809D01*
X151952235Y-124123157D01*
X152200000Y-124172440D01*
X154700000Y-124172440D01*
X154947765Y-124123157D01*
X155157809Y-123982809D01*
X155298157Y-123772765D01*
X155347440Y-123525000D01*
X155347440Y-121025000D01*
X156852560Y-121025000D01*
X156852560Y-123525000D01*
X156901843Y-123772765D01*
X157042191Y-123982809D01*
X157252235Y-124123157D01*
X157500000Y-124172440D01*
X160000000Y-124172440D01*
X160247765Y-124123157D01*
X160457809Y-123982809D01*
X160598157Y-123772765D01*
X160647440Y-123525000D01*
X160647440Y-121025000D01*
X162152560Y-121025000D01*
X162152560Y-123525000D01*
X162201843Y-123772765D01*
X162342191Y-123982809D01*
X162552235Y-124123157D01*
X162800000Y-124172440D01*
X165300000Y-124172440D01*
X165547765Y-124123157D01*
X165757809Y-123982809D01*
X165898157Y-123772765D01*
X165938842Y-123568223D01*
X172543035Y-123568223D01*
X172570222Y-124138454D01*
X172736136Y-124539005D01*
X172982255Y-124613139D01*
X173810395Y-123785000D01*
X174169605Y-123785000D01*
X174997745Y-124613139D01*
X175243864Y-124539005D01*
X175436965Y-124001777D01*
X175409778Y-123431546D01*
X175243864Y-123030995D01*
X174997745Y-122956861D01*
X174169605Y-123785000D01*
X173810395Y-123785000D01*
X172982255Y-122956861D01*
X172736136Y-123030995D01*
X172543035Y-123568223D01*
X165938842Y-123568223D01*
X165947440Y-123525000D01*
X165947440Y-121025000D01*
X165898157Y-120777235D01*
X165757809Y-120567191D01*
X165634803Y-120485000D01*
X172542560Y-120485000D01*
X172542560Y-122085000D01*
X172591843Y-122332765D01*
X172732191Y-122542809D01*
X172942235Y-122683157D01*
X173176187Y-122729693D01*
X173161861Y-122777255D01*
X173990000Y-123605395D01*
X174818139Y-122777255D01*
X174803813Y-122729693D01*
X175037765Y-122683157D01*
X175247809Y-122542809D01*
X175388157Y-122332765D01*
X175437440Y-122085000D01*
X175437440Y-120485000D01*
X175388157Y-120237235D01*
X175247809Y-120027191D01*
X175037765Y-119886843D01*
X174790000Y-119837560D01*
X173190000Y-119837560D01*
X172942235Y-119886843D01*
X172732191Y-120027191D01*
X172591843Y-120237235D01*
X172542560Y-120485000D01*
X165634803Y-120485000D01*
X165547765Y-120426843D01*
X165300000Y-120377560D01*
X162800000Y-120377560D01*
X162552235Y-120426843D01*
X162342191Y-120567191D01*
X162201843Y-120777235D01*
X162152560Y-121025000D01*
X160647440Y-121025000D01*
X160598157Y-120777235D01*
X160457809Y-120567191D01*
X160247765Y-120426843D01*
X160000000Y-120377560D01*
X157500000Y-120377560D01*
X157252235Y-120426843D01*
X157042191Y-120567191D01*
X156901843Y-120777235D01*
X156852560Y-121025000D01*
X155347440Y-121025000D01*
X155298157Y-120777235D01*
X155157809Y-120567191D01*
X154947765Y-120426843D01*
X154700000Y-120377560D01*
X152200000Y-120377560D01*
X151952235Y-120426843D01*
X151742191Y-120567191D01*
X151601843Y-120777235D01*
X151552560Y-121025000D01*
X144957440Y-121025000D01*
X144957440Y-120485000D01*
X144908157Y-120237235D01*
X144767809Y-120027191D01*
X144557765Y-119886843D01*
X144310000Y-119837560D01*
X142710000Y-119837560D01*
X142462235Y-119886843D01*
X142252191Y-120027191D01*
X142111843Y-120237235D01*
X142062560Y-120485000D01*
X139146579Y-120485000D01*
X139122354Y-120363217D01*
X138959905Y-120120095D01*
X138716783Y-119957646D01*
X138502388Y-119915000D01*
X138430000Y-119900601D01*
X138357612Y-119915000D01*
X134720000Y-119915000D01*
X134720000Y-117173329D01*
X137772284Y-117173329D01*
X137915203Y-117518396D01*
X138262337Y-117906764D01*
X138731669Y-118132727D01*
X138938000Y-118010206D01*
X138938000Y-116967000D01*
X139192000Y-116967000D01*
X139192000Y-118010206D01*
X139398331Y-118132727D01*
X139867663Y-117906764D01*
X140214797Y-117518396D01*
X140357716Y-117173329D01*
X140234374Y-116967000D01*
X139192000Y-116967000D01*
X138938000Y-116967000D01*
X137895626Y-116967000D01*
X137772284Y-117173329D01*
X134720000Y-117173329D01*
X134720000Y-116506671D01*
X137772284Y-116506671D01*
X137895626Y-116713000D01*
X138938000Y-116713000D01*
X138938000Y-115669794D01*
X138731669Y-115547273D01*
X138262337Y-115773236D01*
X137915203Y-116161604D01*
X137772284Y-116506671D01*
X134720000Y-116506671D01*
X134720000Y-87562251D01*
X134927245Y-88062585D01*
X135457415Y-88592755D01*
X135640000Y-88668384D01*
X135640001Y-111577836D01*
X135622663Y-111665002D01*
X135691348Y-112010311D01*
X135837576Y-112229156D01*
X135837577Y-112229157D01*
X135886952Y-112303051D01*
X135960845Y-112352425D01*
X139246093Y-115637673D01*
X139192000Y-115669794D01*
X139192000Y-116713000D01*
X140234374Y-116713000D01*
X140332382Y-116549051D01*
X140462832Y-116574999D01*
X140462836Y-116574999D01*
X140549996Y-116592336D01*
X140637156Y-116574999D01*
X145350000Y-116574999D01*
X145350000Y-117105548D01*
X145553242Y-117596217D01*
X145928783Y-117971758D01*
X146419452Y-118175000D01*
X146950548Y-118175000D01*
X147441217Y-117971758D01*
X147816758Y-117596217D01*
X148020000Y-117105548D01*
X148020000Y-116574999D01*
X151298421Y-116574999D01*
X151640705Y-116917283D01*
X151565000Y-117100050D01*
X151565000Y-117849950D01*
X151851974Y-118542767D01*
X152382233Y-119073026D01*
X153075050Y-119360000D01*
X153824950Y-119360000D01*
X154517767Y-119073026D01*
X155048026Y-118542767D01*
X155335000Y-117849950D01*
X155335000Y-117100050D01*
X155048026Y-116407233D01*
X154517767Y-115876974D01*
X153824950Y-115590000D01*
X153075050Y-115590000D01*
X152892283Y-115665705D01*
X152352424Y-115125846D01*
X152303048Y-115051950D01*
X152010309Y-114856347D01*
X151752164Y-114804999D01*
X151752160Y-114804999D01*
X151664999Y-114787662D01*
X151577838Y-114804999D01*
X146219497Y-114804999D01*
X146227862Y-114801534D01*
X146631534Y-114397862D01*
X146850000Y-113870439D01*
X146850000Y-113299561D01*
X146631534Y-112772138D01*
X146227862Y-112368466D01*
X146062692Y-112300050D01*
X151565000Y-112300050D01*
X151565000Y-113049950D01*
X151851974Y-113742767D01*
X152382233Y-114273026D01*
X153075050Y-114560000D01*
X153824950Y-114560000D01*
X154517767Y-114273026D01*
X155048026Y-113742767D01*
X155335000Y-113049950D01*
X155335000Y-112300050D01*
X155048026Y-111607233D01*
X154517767Y-111076974D01*
X153824950Y-110790000D01*
X153075050Y-110790000D01*
X152382233Y-111076974D01*
X151851974Y-111607233D01*
X151565000Y-112300050D01*
X146062692Y-112300050D01*
X145700439Y-112150000D01*
X145129561Y-112150000D01*
X144602138Y-112368466D01*
X144198466Y-112772138D01*
X143980000Y-113299561D01*
X143980000Y-113870439D01*
X144198466Y-114397862D01*
X144602138Y-114801534D01*
X144610503Y-114804999D01*
X140916576Y-114804999D01*
X139749310Y-113637733D01*
X139819005Y-113608864D01*
X139893139Y-113362745D01*
X139065000Y-112534605D01*
X139050858Y-112548748D01*
X138871253Y-112369143D01*
X138885395Y-112355000D01*
X139244605Y-112355000D01*
X140072745Y-113183139D01*
X140318864Y-113109005D01*
X140511965Y-112571777D01*
X140484778Y-112001546D01*
X140318864Y-111600995D01*
X140072745Y-111526861D01*
X139244605Y-112355000D01*
X138885395Y-112355000D01*
X138057255Y-111526861D01*
X137811136Y-111600995D01*
X137785075Y-111673499D01*
X137410000Y-111298424D01*
X137410000Y-109055000D01*
X137617560Y-109055000D01*
X137617560Y-110655000D01*
X137666843Y-110902765D01*
X137807191Y-111112809D01*
X138017235Y-111253157D01*
X138251187Y-111299693D01*
X138236861Y-111347255D01*
X139065000Y-112175395D01*
X139893139Y-111347255D01*
X139878813Y-111299693D01*
X140112765Y-111253157D01*
X140322809Y-111112809D01*
X140463157Y-110902765D01*
X140512440Y-110655000D01*
X140512440Y-109055000D01*
X140463157Y-108807235D01*
X140322809Y-108597191D01*
X140112765Y-108456843D01*
X139865000Y-108407560D01*
X138265000Y-108407560D01*
X138017235Y-108456843D01*
X137807191Y-108597191D01*
X137666843Y-108807235D01*
X137617560Y-109055000D01*
X137410000Y-109055000D01*
X137410000Y-108299561D01*
X143980000Y-108299561D01*
X143980000Y-108870439D01*
X144198466Y-109397862D01*
X144602138Y-109801534D01*
X145129561Y-110020000D01*
X145700439Y-110020000D01*
X146227862Y-109801534D01*
X146631534Y-109397862D01*
X146850000Y-108870439D01*
X146850000Y-108299561D01*
X146631534Y-107772138D01*
X146227862Y-107368466D01*
X145700439Y-107150000D01*
X145129561Y-107150000D01*
X144602138Y-107368466D01*
X144198466Y-107772138D01*
X143980000Y-108299561D01*
X137410000Y-108299561D01*
X137410000Y-105144452D01*
X137730000Y-105144452D01*
X137730000Y-105675548D01*
X137933242Y-106166217D01*
X138308783Y-106541758D01*
X138799452Y-106745000D01*
X139330548Y-106745000D01*
X139821217Y-106541758D01*
X140196758Y-106166217D01*
X140400000Y-105675548D01*
X140400000Y-105144452D01*
X141540000Y-105144452D01*
X141540000Y-105675548D01*
X141743242Y-106166217D01*
X142118783Y-106541758D01*
X142609452Y-106745000D01*
X143140548Y-106745000D01*
X143631217Y-106541758D01*
X144006758Y-106166217D01*
X144210000Y-105675548D01*
X144210000Y-105144452D01*
X145350000Y-105144452D01*
X145350000Y-105675548D01*
X145553242Y-106166217D01*
X145928783Y-106541758D01*
X146419452Y-106745000D01*
X146950548Y-106745000D01*
X147441217Y-106541758D01*
X147816758Y-106166217D01*
X148020000Y-105675548D01*
X148020000Y-105144452D01*
X149160000Y-105144452D01*
X149160000Y-105675548D01*
X149363242Y-106166217D01*
X149738783Y-106541758D01*
X150229452Y-106745000D01*
X150760548Y-106745000D01*
X151251217Y-106541758D01*
X151626758Y-106166217D01*
X151795416Y-105759039D01*
X153548096Y-105759039D01*
X153708959Y-106147423D01*
X154084866Y-106562389D01*
X154590959Y-106801914D01*
X154813000Y-106680629D01*
X154813000Y-105537000D01*
X153670085Y-105537000D01*
X153548096Y-105759039D01*
X151795416Y-105759039D01*
X151830000Y-105675548D01*
X151830000Y-105144452D01*
X151626758Y-104653783D01*
X151251217Y-104278242D01*
X150760548Y-104075000D01*
X150229452Y-104075000D01*
X149738783Y-104278242D01*
X149363242Y-104653783D01*
X149160000Y-105144452D01*
X148020000Y-105144452D01*
X147816758Y-104653783D01*
X147441217Y-104278242D01*
X146950548Y-104075000D01*
X146419452Y-104075000D01*
X145928783Y-104278242D01*
X145553242Y-104653783D01*
X145350000Y-105144452D01*
X144210000Y-105144452D01*
X144006758Y-104653783D01*
X143631217Y-104278242D01*
X143140548Y-104075000D01*
X142609452Y-104075000D01*
X142118783Y-104278242D01*
X141743242Y-104653783D01*
X141540000Y-105144452D01*
X140400000Y-105144452D01*
X140196758Y-104653783D01*
X139821217Y-104278242D01*
X139330548Y-104075000D01*
X138799452Y-104075000D01*
X138308783Y-104278242D01*
X137933242Y-104653783D01*
X137730000Y-105144452D01*
X137410000Y-105144452D01*
X137410000Y-97790000D01*
X137703846Y-97790000D01*
X137807458Y-98310891D01*
X138102519Y-98752481D01*
X138544109Y-99047542D01*
X138933515Y-99125000D01*
X139196485Y-99125000D01*
X139585891Y-99047542D01*
X140027481Y-98752481D01*
X140322542Y-98310891D01*
X140426154Y-97790000D01*
X141513846Y-97790000D01*
X141617458Y-98310891D01*
X141912519Y-98752481D01*
X142354109Y-99047542D01*
X142743515Y-99125000D01*
X143006485Y-99125000D01*
X143395891Y-99047542D01*
X143837481Y-98752481D01*
X144132542Y-98310891D01*
X144236154Y-97790000D01*
X145323846Y-97790000D01*
X145427458Y-98310891D01*
X145722519Y-98752481D01*
X146164109Y-99047542D01*
X146553515Y-99125000D01*
X146816485Y-99125000D01*
X147205891Y-99047542D01*
X147647481Y-98752481D01*
X147942542Y-98310891D01*
X148046154Y-97790000D01*
X147942542Y-97269109D01*
X147647481Y-96827519D01*
X147205891Y-96532458D01*
X146816485Y-96455000D01*
X146553515Y-96455000D01*
X146164109Y-96532458D01*
X145722519Y-96827519D01*
X145427458Y-97269109D01*
X145323846Y-97790000D01*
X144236154Y-97790000D01*
X144132542Y-97269109D01*
X143837481Y-96827519D01*
X143395891Y-96532458D01*
X143006485Y-96455000D01*
X142743515Y-96455000D01*
X142354109Y-96532458D01*
X141912519Y-96827519D01*
X141617458Y-97269109D01*
X141513846Y-97790000D01*
X140426154Y-97790000D01*
X140322542Y-97269109D01*
X140027481Y-96827519D01*
X139585891Y-96532458D01*
X139196485Y-96455000D01*
X138933515Y-96455000D01*
X138544109Y-96532458D01*
X138102519Y-96827519D01*
X137807458Y-97269109D01*
X137703846Y-97790000D01*
X137410000Y-97790000D01*
X137410000Y-94015000D01*
X137817560Y-94015000D01*
X137817560Y-95215000D01*
X137866843Y-95462765D01*
X138007191Y-95672809D01*
X138217235Y-95813157D01*
X138465000Y-95862440D01*
X139665000Y-95862440D01*
X139912765Y-95813157D01*
X140122809Y-95672809D01*
X140174800Y-95595000D01*
X147048422Y-95595000D01*
X149152026Y-97698605D01*
X149133846Y-97790000D01*
X149237458Y-98310891D01*
X149532519Y-98752481D01*
X149974109Y-99047542D01*
X150363515Y-99125000D01*
X150626485Y-99125000D01*
X151015891Y-99047542D01*
X151457481Y-98752481D01*
X151752542Y-98310891D01*
X151856154Y-97790000D01*
X151752542Y-97269109D01*
X151457481Y-96827519D01*
X151015891Y-96532458D01*
X150626485Y-96455000D01*
X150411579Y-96455000D01*
X148102425Y-94145847D01*
X148053049Y-94071951D01*
X147760310Y-93876348D01*
X147502165Y-93825000D01*
X147502161Y-93825000D01*
X147415000Y-93807663D01*
X147327839Y-93825000D01*
X146187975Y-93825000D01*
X146546758Y-93466217D01*
X146750000Y-92975548D01*
X146750000Y-92710000D01*
X151673846Y-92710000D01*
X151777458Y-93230891D01*
X152072519Y-93672481D01*
X152514109Y-93967542D01*
X152903515Y-94045000D01*
X153118422Y-94045000D01*
X155415981Y-96342560D01*
X154140000Y-96342560D01*
X153892235Y-96391843D01*
X153682191Y-96532191D01*
X153541843Y-96742235D01*
X153492560Y-96990000D01*
X153492560Y-98590000D01*
X153541843Y-98837765D01*
X153682191Y-99047809D01*
X153892235Y-99188157D01*
X154026106Y-99214785D01*
X153905423Y-99295423D01*
X153588260Y-99770091D01*
X153476887Y-100330000D01*
X153588260Y-100889909D01*
X153905423Y-101364577D01*
X154257758Y-101600000D01*
X153905423Y-101835423D01*
X153588260Y-102310091D01*
X153476887Y-102870000D01*
X153588260Y-103429909D01*
X153905423Y-103904577D01*
X154289108Y-104160947D01*
X154084866Y-104257611D01*
X153708959Y-104672577D01*
X153548096Y-105060961D01*
X153670085Y-105283000D01*
X154813000Y-105283000D01*
X154813000Y-105263000D01*
X155067000Y-105263000D01*
X155067000Y-105283000D01*
X155087000Y-105283000D01*
X155087000Y-105537000D01*
X155067000Y-105537000D01*
X155067000Y-106680629D01*
X155289041Y-106801914D01*
X155795134Y-106562389D01*
X156165000Y-106154092D01*
X156164999Y-115687838D01*
X156147662Y-115774999D01*
X156164999Y-115862160D01*
X156164999Y-115862163D01*
X156216347Y-116120308D01*
X156411950Y-116413048D01*
X156485846Y-116462424D01*
X156940705Y-116917283D01*
X156865000Y-117100050D01*
X156865000Y-117849950D01*
X157151974Y-118542767D01*
X157682233Y-119073026D01*
X158375050Y-119360000D01*
X159124950Y-119360000D01*
X159817767Y-119073026D01*
X160348026Y-118542767D01*
X160635000Y-117849950D01*
X160635000Y-117100050D01*
X160348026Y-116407233D01*
X159817767Y-115876974D01*
X159124950Y-115590000D01*
X158375050Y-115590000D01*
X158192283Y-115665705D01*
X157934999Y-115408421D01*
X157934999Y-114381367D01*
X158425806Y-114569388D01*
X159175435Y-114549250D01*
X159774467Y-114301123D01*
X159903715Y-114008320D01*
X158750000Y-112854605D01*
X158735858Y-112868748D01*
X158556253Y-112689143D01*
X158570395Y-112675000D01*
X158929605Y-112675000D01*
X160083320Y-113828715D01*
X160376123Y-113699467D01*
X160644388Y-112999194D01*
X160624250Y-112249565D01*
X160376123Y-111650533D01*
X160083320Y-111521285D01*
X158929605Y-112675000D01*
X158570395Y-112675000D01*
X158556253Y-112660858D01*
X158735858Y-112481253D01*
X158750000Y-112495395D01*
X159903715Y-111341680D01*
X159774467Y-111048877D01*
X159074194Y-110780612D01*
X158324565Y-110800750D01*
X157934999Y-110962113D01*
X157934999Y-96812158D01*
X157952336Y-96724998D01*
X157934999Y-96637839D01*
X157934999Y-96637834D01*
X157929463Y-96610000D01*
X159752663Y-96610000D01*
X159770001Y-96697166D01*
X159770000Y-109132839D01*
X159752663Y-109220000D01*
X159770000Y-109307161D01*
X159770000Y-109307164D01*
X159821348Y-109565309D01*
X160016951Y-109858049D01*
X160090847Y-109907425D01*
X161991757Y-111808336D01*
X162161952Y-112063050D01*
X162235848Y-112112426D01*
X162240705Y-112117283D01*
X162165000Y-112300050D01*
X162165000Y-113049950D01*
X162451974Y-113742767D01*
X162982233Y-114273026D01*
X163675050Y-114560000D01*
X164424950Y-114560000D01*
X164865002Y-114377725D01*
X164865002Y-115408419D01*
X164607717Y-115665704D01*
X164424950Y-115590000D01*
X163675050Y-115590000D01*
X162982233Y-115876974D01*
X162451974Y-116407233D01*
X162165000Y-117100050D01*
X162165000Y-117849950D01*
X162451974Y-118542767D01*
X162982233Y-119073026D01*
X163675050Y-119360000D01*
X164424950Y-119360000D01*
X165117767Y-119073026D01*
X165648026Y-118542767D01*
X165935000Y-117849950D01*
X165935000Y-117100050D01*
X165859296Y-116917283D01*
X166202127Y-116574452D01*
X169480000Y-116574452D01*
X169480000Y-117105548D01*
X169683242Y-117596217D01*
X170058783Y-117971758D01*
X170549452Y-118175000D01*
X171080548Y-118175000D01*
X171571217Y-117971758D01*
X171946758Y-117596217D01*
X172121924Y-117173329D01*
X177142284Y-117173329D01*
X177285203Y-117518396D01*
X177632337Y-117906764D01*
X178101669Y-118132727D01*
X178308000Y-118010206D01*
X178308000Y-116967000D01*
X178562000Y-116967000D01*
X178562000Y-118010206D01*
X178768331Y-118132727D01*
X179237663Y-117906764D01*
X179584797Y-117518396D01*
X179727716Y-117173329D01*
X179604374Y-116967000D01*
X178562000Y-116967000D01*
X178308000Y-116967000D01*
X177265626Y-116967000D01*
X177142284Y-117173329D01*
X172121924Y-117173329D01*
X172150000Y-117105548D01*
X172150000Y-116574452D01*
X172121925Y-116506671D01*
X177142284Y-116506671D01*
X177265626Y-116713000D01*
X178308000Y-116713000D01*
X178308000Y-115669794D01*
X178562000Y-115669794D01*
X178562000Y-116713000D01*
X179604374Y-116713000D01*
X179727716Y-116506671D01*
X179584797Y-116161604D01*
X179237663Y-115773236D01*
X178768331Y-115547273D01*
X178562000Y-115669794D01*
X178308000Y-115669794D01*
X178101669Y-115547273D01*
X177632337Y-115773236D01*
X177285203Y-116161604D01*
X177142284Y-116506671D01*
X172121925Y-116506671D01*
X171946758Y-116083783D01*
X171571217Y-115708242D01*
X171080548Y-115505000D01*
X170549452Y-115505000D01*
X170058783Y-115708242D01*
X169683242Y-116083783D01*
X169480000Y-116574452D01*
X166202127Y-116574452D01*
X166314157Y-116462422D01*
X166388050Y-116413048D01*
X166437426Y-116339153D01*
X166583652Y-116120310D01*
X166583653Y-116120309D01*
X166635001Y-115862164D01*
X166635001Y-115862160D01*
X166652338Y-115775000D01*
X166635001Y-115687840D01*
X166635001Y-112138223D01*
X176988035Y-112138223D01*
X177015222Y-112708454D01*
X177181136Y-113109005D01*
X177427255Y-113183139D01*
X178255395Y-112355000D01*
X177427255Y-111526861D01*
X177181136Y-111600995D01*
X176988035Y-112138223D01*
X166635001Y-112138223D01*
X166635001Y-108299561D01*
X170650000Y-108299561D01*
X170650000Y-108870439D01*
X170868466Y-109397862D01*
X171272138Y-109801534D01*
X171799561Y-110020000D01*
X172370439Y-110020000D01*
X172897862Y-109801534D01*
X173301534Y-109397862D01*
X173520000Y-108870439D01*
X173520000Y-108299561D01*
X173301534Y-107772138D01*
X172897862Y-107368466D01*
X172370439Y-107150000D01*
X171799561Y-107150000D01*
X171272138Y-107368466D01*
X170868466Y-107772138D01*
X170650000Y-108299561D01*
X166635001Y-108299561D01*
X166635001Y-106701735D01*
X166739452Y-106745000D01*
X167270548Y-106745000D01*
X167761217Y-106541758D01*
X168136758Y-106166217D01*
X168340000Y-105675548D01*
X168340000Y-105144452D01*
X169480000Y-105144452D01*
X169480000Y-105675548D01*
X169683242Y-106166217D01*
X170058783Y-106541758D01*
X170549452Y-106745000D01*
X171080548Y-106745000D01*
X171571217Y-106541758D01*
X171946758Y-106166217D01*
X172150000Y-105675548D01*
X172150000Y-105144452D01*
X171946758Y-104653783D01*
X171571217Y-104278242D01*
X171080548Y-104075000D01*
X170549452Y-104075000D01*
X170058783Y-104278242D01*
X169683242Y-104653783D01*
X169480000Y-105144452D01*
X168340000Y-105144452D01*
X168136758Y-104653783D01*
X167761217Y-104278242D01*
X167270548Y-104075000D01*
X166739452Y-104075000D01*
X166635001Y-104118265D01*
X166635001Y-99077556D01*
X166873515Y-99125000D01*
X167136485Y-99125000D01*
X167525891Y-99047542D01*
X167967481Y-98752481D01*
X168262542Y-98310891D01*
X168366154Y-97790000D01*
X169453846Y-97790000D01*
X169557458Y-98310891D01*
X169852519Y-98752481D01*
X170294109Y-99047542D01*
X170683515Y-99125000D01*
X170898421Y-99125000D01*
X170950844Y-99177423D01*
X170950847Y-99177425D01*
X174890002Y-103116581D01*
X174890002Y-104075000D01*
X174359452Y-104075000D01*
X173868783Y-104278242D01*
X173493242Y-104653783D01*
X173290000Y-105144452D01*
X173290000Y-105675548D01*
X173493242Y-106166217D01*
X173868783Y-106541758D01*
X174359452Y-106745000D01*
X174890548Y-106745000D01*
X175231991Y-106603569D01*
X177206217Y-108577796D01*
X177177191Y-108597191D01*
X177036843Y-108807235D01*
X176987560Y-109055000D01*
X176987560Y-110655000D01*
X177036843Y-110902765D01*
X177177191Y-111112809D01*
X177387235Y-111253157D01*
X177621187Y-111299693D01*
X177606861Y-111347255D01*
X178435000Y-112175395D01*
X179263139Y-111347255D01*
X179248813Y-111299693D01*
X179482765Y-111253157D01*
X179692809Y-111112809D01*
X179833157Y-110902765D01*
X179882440Y-110655000D01*
X179882440Y-109055000D01*
X179833157Y-108807235D01*
X179692809Y-108597191D01*
X179482765Y-108456843D01*
X179311018Y-108422681D01*
X179268652Y-108209690D01*
X179073049Y-107916951D01*
X178999156Y-107867577D01*
X176874910Y-105743331D01*
X177142273Y-105743331D01*
X177368236Y-106212663D01*
X177756604Y-106559797D01*
X178101671Y-106702716D01*
X178308000Y-106579374D01*
X178308000Y-105537000D01*
X178562000Y-105537000D01*
X178562000Y-106579374D01*
X178768329Y-106702716D01*
X179113396Y-106559797D01*
X179501764Y-106212663D01*
X179727727Y-105743331D01*
X179605206Y-105537000D01*
X178562000Y-105537000D01*
X178308000Y-105537000D01*
X177264794Y-105537000D01*
X177142273Y-105743331D01*
X176874910Y-105743331D01*
X176660001Y-105528423D01*
X176660001Y-105076669D01*
X177142273Y-105076669D01*
X177264794Y-105283000D01*
X178308000Y-105283000D01*
X178308000Y-104240626D01*
X178562000Y-104240626D01*
X178562000Y-105283000D01*
X179605206Y-105283000D01*
X179727727Y-105076669D01*
X179501764Y-104607337D01*
X179113396Y-104260203D01*
X178768329Y-104117284D01*
X178562000Y-104240626D01*
X178308000Y-104240626D01*
X178101671Y-104117284D01*
X177756604Y-104260203D01*
X177368236Y-104607337D01*
X177142273Y-105076669D01*
X176660001Y-105076669D01*
X176660001Y-102837162D01*
X176677338Y-102750001D01*
X176660001Y-102662840D01*
X176660001Y-102662836D01*
X176608653Y-102404691D01*
X176413050Y-102111952D01*
X176339157Y-102062578D01*
X172202425Y-97925847D01*
X172202423Y-97925844D01*
X172157974Y-97881395D01*
X172176154Y-97790000D01*
X173263846Y-97790000D01*
X173367458Y-98310891D01*
X173662519Y-98752481D01*
X174104109Y-99047542D01*
X174493515Y-99125000D01*
X174756485Y-99125000D01*
X175145891Y-99047542D01*
X175587481Y-98752481D01*
X175882542Y-98310891D01*
X175986154Y-97790000D01*
X175933334Y-97524452D01*
X177100000Y-97524452D01*
X177100000Y-98055548D01*
X177303242Y-98546217D01*
X177678783Y-98921758D01*
X178169452Y-99125000D01*
X178700548Y-99125000D01*
X179191217Y-98921758D01*
X179566758Y-98546217D01*
X179770000Y-98055548D01*
X179770000Y-97524452D01*
X179566758Y-97033783D01*
X179191217Y-96658242D01*
X178700548Y-96455000D01*
X178169452Y-96455000D01*
X177678783Y-96658242D01*
X177303242Y-97033783D01*
X177100000Y-97524452D01*
X175933334Y-97524452D01*
X175882542Y-97269109D01*
X175587481Y-96827519D01*
X175145891Y-96532458D01*
X174756485Y-96455000D01*
X174493515Y-96455000D01*
X174104109Y-96532458D01*
X173662519Y-96827519D01*
X173367458Y-97269109D01*
X173263846Y-97790000D01*
X172176154Y-97790000D01*
X172072542Y-97269109D01*
X171777481Y-96827519D01*
X171335891Y-96532458D01*
X170946485Y-96455000D01*
X170683515Y-96455000D01*
X170294109Y-96532458D01*
X169852519Y-96827519D01*
X169557458Y-97269109D01*
X169453846Y-97790000D01*
X168366154Y-97790000D01*
X168347974Y-97698604D01*
X170546579Y-95500000D01*
X175689311Y-95500000D01*
X175776472Y-95517337D01*
X175863633Y-95500000D01*
X175863637Y-95500000D01*
X176121782Y-95448652D01*
X176414521Y-95253049D01*
X176447279Y-95204024D01*
X176565000Y-95227440D01*
X177765000Y-95227440D01*
X178012765Y-95178157D01*
X178222809Y-95037809D01*
X178363157Y-94827765D01*
X178412440Y-94580000D01*
X178412440Y-93380000D01*
X178363157Y-93132235D01*
X178222809Y-92922191D01*
X178070879Y-92820674D01*
X178211982Y-92679571D01*
X178400000Y-92225657D01*
X178400000Y-91734343D01*
X178211982Y-91280429D01*
X177864571Y-90933018D01*
X177410657Y-90745000D01*
X176919343Y-90745000D01*
X176465429Y-90933018D01*
X176118018Y-91280429D01*
X175930000Y-91734343D01*
X175930000Y-92225657D01*
X176118018Y-92679571D01*
X176259121Y-92820674D01*
X176107191Y-92922191D01*
X175966843Y-93132235D01*
X175941151Y-93261401D01*
X175678423Y-93436951D01*
X175629047Y-93510847D01*
X175409894Y-93730000D01*
X173460816Y-93730000D01*
X173559534Y-93624332D01*
X173774175Y-93106122D01*
X173656125Y-92837000D01*
X172212000Y-92837000D01*
X172212000Y-92857000D01*
X171958000Y-92857000D01*
X171958000Y-92837000D01*
X171938000Y-92837000D01*
X171938000Y-92583000D01*
X171958000Y-92583000D01*
X171958000Y-92563000D01*
X172212000Y-92563000D01*
X172212000Y-92583000D01*
X173656125Y-92583000D01*
X173774175Y-92313878D01*
X173559534Y-91795668D01*
X173097392Y-91300988D01*
X172578966Y-91065299D01*
X172589265Y-91055000D01*
X173902839Y-91055000D01*
X173990000Y-91072337D01*
X174077161Y-91055000D01*
X174077165Y-91055000D01*
X174335310Y-91003652D01*
X174628049Y-90808049D01*
X174677425Y-90734153D01*
X176607528Y-88804051D01*
X176790114Y-88879680D01*
X177539886Y-88879680D01*
X178232585Y-88592755D01*
X178762755Y-88062585D01*
X179049680Y-87369886D01*
X179049680Y-86620114D01*
X178762755Y-85927415D01*
X178232585Y-85397245D01*
X177539886Y-85110320D01*
X176790114Y-85110320D01*
X176097415Y-85397245D01*
X175567245Y-85927415D01*
X175280320Y-86620114D01*
X175280320Y-87369886D01*
X175355949Y-87552472D01*
X173623422Y-89285000D01*
X172309845Y-89285000D01*
X172222685Y-89267663D01*
X172135525Y-89285000D01*
X172135521Y-89285000D01*
X171877376Y-89336348D01*
X171877374Y-89336349D01*
X171877375Y-89336349D01*
X171658531Y-89482576D01*
X171658530Y-89482577D01*
X171584637Y-89531951D01*
X171535263Y-89605844D01*
X169615847Y-91525261D01*
X169541951Y-91574637D01*
X169346348Y-91867377D01*
X169295000Y-92125522D01*
X169295000Y-92125525D01*
X169277663Y-92212686D01*
X169295000Y-92299847D01*
X169295000Y-92546419D01*
X165185848Y-96655572D01*
X165111952Y-96704948D01*
X164916349Y-96997688D01*
X164865001Y-97255833D01*
X164865001Y-97255836D01*
X164847664Y-97342997D01*
X164865001Y-97430158D01*
X164865002Y-110972275D01*
X164424950Y-110790000D01*
X163675050Y-110790000D01*
X163522421Y-110853221D01*
X163487425Y-110800846D01*
X163487423Y-110800844D01*
X163438050Y-110726952D01*
X163364157Y-110677578D01*
X161540000Y-108853422D01*
X161540000Y-106454317D01*
X162000091Y-106761740D01*
X162418667Y-106845000D01*
X162701333Y-106845000D01*
X163119909Y-106761740D01*
X163594577Y-106444577D01*
X163911740Y-105969909D01*
X164023113Y-105410000D01*
X163911740Y-104850091D01*
X163594577Y-104375423D01*
X163242242Y-104140000D01*
X163594577Y-103904577D01*
X163911740Y-103429909D01*
X164023113Y-102870000D01*
X163911740Y-102310091D01*
X163594577Y-101835423D01*
X163242242Y-101600000D01*
X163594577Y-101364577D01*
X163911740Y-100889909D01*
X164023113Y-100330000D01*
X163911740Y-99770091D01*
X163594577Y-99295423D01*
X163242242Y-99060000D01*
X163594577Y-98824577D01*
X163911740Y-98349909D01*
X164023113Y-97790000D01*
X163911740Y-97230091D01*
X163594577Y-96755423D01*
X163445000Y-96655479D01*
X163445000Y-96581578D01*
X165029156Y-94997423D01*
X165103049Y-94948049D01*
X165298652Y-94655310D01*
X165338011Y-94457440D01*
X165565000Y-94457440D01*
X165812765Y-94408157D01*
X166022809Y-94267809D01*
X166163157Y-94057765D01*
X166212440Y-93810000D01*
X166212440Y-91610000D01*
X166163157Y-91362235D01*
X166022809Y-91152191D01*
X165812765Y-91011843D01*
X165565000Y-90962560D01*
X164454016Y-90962560D01*
X165836896Y-89579681D01*
X167123158Y-89579681D01*
X167210319Y-89597018D01*
X167297480Y-89579681D01*
X167297484Y-89579681D01*
X167555629Y-89528333D01*
X167848368Y-89332730D01*
X167897744Y-89258834D01*
X168352528Y-88804050D01*
X168535114Y-88879680D01*
X169284886Y-88879680D01*
X169977585Y-88592755D01*
X170210739Y-88359601D01*
X170237163Y-88492445D01*
X170377511Y-88702489D01*
X170587555Y-88842837D01*
X170835320Y-88892120D01*
X173334680Y-88892120D01*
X173582445Y-88842837D01*
X173792489Y-88702489D01*
X173932837Y-88492445D01*
X173982120Y-88244680D01*
X173982120Y-85745320D01*
X173932837Y-85497555D01*
X173792489Y-85287511D01*
X173582445Y-85147163D01*
X173334680Y-85097880D01*
X170835320Y-85097880D01*
X170587555Y-85147163D01*
X170377511Y-85287511D01*
X170237163Y-85497555D01*
X170210739Y-85630399D01*
X169977585Y-85397245D01*
X169284886Y-85110320D01*
X168535114Y-85110320D01*
X167842415Y-85397245D01*
X167312245Y-85927415D01*
X167304591Y-85945892D01*
X167068089Y-85841517D01*
X165914605Y-86995000D01*
X165928748Y-87009142D01*
X165749142Y-87188748D01*
X165735000Y-87174605D01*
X164894669Y-88014937D01*
X164832268Y-88056632D01*
X164790573Y-88119033D01*
X164581517Y-88328089D01*
X164582685Y-88330735D01*
X162350844Y-90562576D01*
X162276951Y-90611950D01*
X162227577Y-90685843D01*
X162227575Y-90685845D01*
X162081347Y-90904690D01*
X162012662Y-91249999D01*
X162030000Y-91337164D01*
X162029999Y-93983422D01*
X160090845Y-95922577D01*
X160016952Y-95971951D01*
X159967578Y-96045844D01*
X159967576Y-96045846D01*
X159821348Y-96264691D01*
X159752663Y-96610000D01*
X157929463Y-96610000D01*
X157883651Y-96379689D01*
X157688048Y-96086950D01*
X157614155Y-96037576D01*
X154377974Y-92801396D01*
X154396154Y-92710000D01*
X154292542Y-92189109D01*
X154039230Y-91810000D01*
X155932560Y-91810000D01*
X155932560Y-93610000D01*
X155981843Y-93857765D01*
X156122191Y-94067809D01*
X156332235Y-94208157D01*
X156580000Y-94257440D01*
X158380000Y-94257440D01*
X158627765Y-94208157D01*
X158837809Y-94067809D01*
X158978157Y-93857765D01*
X158981275Y-93842092D01*
X159150493Y-94011310D01*
X159714670Y-94245000D01*
X160325330Y-94245000D01*
X160889507Y-94011310D01*
X161321310Y-93579507D01*
X161555000Y-93015330D01*
X161555000Y-92404670D01*
X161321310Y-91840493D01*
X160889507Y-91408690D01*
X160325330Y-91175000D01*
X159714670Y-91175000D01*
X159150493Y-91408690D01*
X158981275Y-91577908D01*
X158978157Y-91562235D01*
X158837809Y-91352191D01*
X158627765Y-91211843D01*
X158380000Y-91162560D01*
X156580000Y-91162560D01*
X156332235Y-91211843D01*
X156122191Y-91352191D01*
X155981843Y-91562235D01*
X155932560Y-91810000D01*
X154039230Y-91810000D01*
X153997481Y-91747519D01*
X153555891Y-91452458D01*
X153166485Y-91375000D01*
X152903515Y-91375000D01*
X152514109Y-91452458D01*
X152072519Y-91747519D01*
X151777458Y-92189109D01*
X151673846Y-92710000D01*
X146750000Y-92710000D01*
X146750000Y-92444452D01*
X146546758Y-91953783D01*
X146171217Y-91578242D01*
X145680548Y-91375000D01*
X145149452Y-91375000D01*
X144658783Y-91578242D01*
X144283242Y-91953783D01*
X144080000Y-92444452D01*
X144080000Y-92975548D01*
X144283242Y-93466217D01*
X144642025Y-93825000D01*
X140274647Y-93825000D01*
X140263157Y-93767235D01*
X140122809Y-93557191D01*
X139970879Y-93455674D01*
X140111982Y-93314571D01*
X140300000Y-92860657D01*
X140300000Y-92369343D01*
X140111982Y-91915429D01*
X139764571Y-91568018D01*
X139310657Y-91380000D01*
X138819343Y-91380000D01*
X138365429Y-91568018D01*
X138018018Y-91915429D01*
X137830000Y-92369343D01*
X137830000Y-92860657D01*
X138018018Y-93314571D01*
X138159121Y-93455674D01*
X138007191Y-93557191D01*
X137866843Y-93767235D01*
X137817560Y-94015000D01*
X137410000Y-94015000D01*
X137410000Y-88668384D01*
X137592585Y-88592755D01*
X138122755Y-88062585D01*
X138409680Y-87369886D01*
X138409680Y-86620114D01*
X138450320Y-86620114D01*
X138450320Y-87369886D01*
X138737245Y-88062585D01*
X139267415Y-88592755D01*
X139960114Y-88879680D01*
X140709886Y-88879680D01*
X140892472Y-88804051D01*
X141020524Y-88932103D01*
X141020527Y-88932105D01*
X141347256Y-89258834D01*
X141396632Y-89332730D01*
X141689371Y-89528333D01*
X141947516Y-89579681D01*
X141947520Y-89579681D01*
X142034681Y-89597018D01*
X142121842Y-89579681D01*
X146803158Y-89579681D01*
X146890319Y-89597018D01*
X146977480Y-89579681D01*
X146977484Y-89579681D01*
X147235629Y-89528333D01*
X147528368Y-89332730D01*
X147577744Y-89258834D01*
X148032528Y-88804050D01*
X148215114Y-88879680D01*
X148964886Y-88879680D01*
X149657585Y-88592755D01*
X149922251Y-88328089D01*
X150611517Y-88328089D01*
X150740725Y-88620859D01*
X151440883Y-88889071D01*
X152190384Y-88868928D01*
X152789275Y-88620859D01*
X152918483Y-88328089D01*
X155691517Y-88328089D01*
X155820725Y-88620859D01*
X156520883Y-88889071D01*
X157270384Y-88868928D01*
X157869275Y-88620859D01*
X157998483Y-88328089D01*
X156845000Y-87174605D01*
X155691517Y-88328089D01*
X152918483Y-88328089D01*
X151765000Y-87174605D01*
X150611517Y-88328089D01*
X149922251Y-88328089D01*
X150187755Y-88062585D01*
X150195409Y-88044108D01*
X150431911Y-88148483D01*
X151585395Y-86995000D01*
X151944605Y-86995000D01*
X153098089Y-88148483D01*
X153390859Y-88019275D01*
X153659071Y-87319117D01*
X153641650Y-86670883D01*
X154950929Y-86670883D01*
X154971072Y-87420384D01*
X155219141Y-88019275D01*
X155511911Y-88148483D01*
X156665395Y-86995000D01*
X157024605Y-86995000D01*
X158178089Y-88148483D01*
X158470859Y-88019275D01*
X158739071Y-87319117D01*
X158718928Y-86569616D01*
X158470859Y-85970725D01*
X158178089Y-85841517D01*
X157024605Y-86995000D01*
X156665395Y-86995000D01*
X155511911Y-85841517D01*
X155219141Y-85970725D01*
X154950929Y-86670883D01*
X153641650Y-86670883D01*
X153638928Y-86569616D01*
X153390859Y-85970725D01*
X153098089Y-85841517D01*
X151944605Y-86995000D01*
X151585395Y-86995000D01*
X150431911Y-85841517D01*
X150195409Y-85945892D01*
X150187755Y-85927415D01*
X149922251Y-85661911D01*
X150611517Y-85661911D01*
X151765000Y-86815395D01*
X152918483Y-85661911D01*
X155691517Y-85661911D01*
X156845000Y-86815395D01*
X157915074Y-85745320D01*
X158757880Y-85745320D01*
X158757880Y-88244680D01*
X158807163Y-88492445D01*
X158947511Y-88702489D01*
X159157555Y-88842837D01*
X159405320Y-88892120D01*
X161904680Y-88892120D01*
X162152445Y-88842837D01*
X162362489Y-88702489D01*
X162502837Y-88492445D01*
X162552120Y-88244680D01*
X162552120Y-86670883D01*
X163840929Y-86670883D01*
X163861072Y-87420384D01*
X164109141Y-88019275D01*
X164401911Y-88148483D01*
X165555395Y-86995000D01*
X164401911Y-85841517D01*
X164109141Y-85970725D01*
X163840929Y-86670883D01*
X162552120Y-86670883D01*
X162552120Y-85745320D01*
X162535530Y-85661911D01*
X164581517Y-85661911D01*
X165735000Y-86815395D01*
X166888483Y-85661911D01*
X166759275Y-85369141D01*
X166059117Y-85100929D01*
X165309616Y-85121072D01*
X164710725Y-85369141D01*
X164581517Y-85661911D01*
X162535530Y-85661911D01*
X162502837Y-85497555D01*
X162362489Y-85287511D01*
X162152445Y-85147163D01*
X161904680Y-85097880D01*
X159405320Y-85097880D01*
X159157555Y-85147163D01*
X158947511Y-85287511D01*
X158807163Y-85497555D01*
X158757880Y-85745320D01*
X157915074Y-85745320D01*
X157998483Y-85661911D01*
X157869275Y-85369141D01*
X157169117Y-85100929D01*
X156419616Y-85121072D01*
X155820725Y-85369141D01*
X155691517Y-85661911D01*
X152918483Y-85661911D01*
X152789275Y-85369141D01*
X152089117Y-85100929D01*
X151339616Y-85121072D01*
X150740725Y-85369141D01*
X150611517Y-85661911D01*
X149922251Y-85661911D01*
X149657585Y-85397245D01*
X148964886Y-85110320D01*
X148215114Y-85110320D01*
X147522415Y-85397245D01*
X147289261Y-85630399D01*
X147262837Y-85497555D01*
X147122489Y-85287511D01*
X146912445Y-85147163D01*
X146664680Y-85097880D01*
X144165320Y-85097880D01*
X143917555Y-85147163D01*
X143707511Y-85287511D01*
X143567163Y-85497555D01*
X143517880Y-85745320D01*
X143517880Y-87809681D01*
X142401259Y-87809681D01*
X142272105Y-87680527D01*
X142272103Y-87680524D01*
X142144051Y-87552472D01*
X142219680Y-87369886D01*
X142219680Y-86620114D01*
X141932755Y-85927415D01*
X141402585Y-85397245D01*
X140709886Y-85110320D01*
X139960114Y-85110320D01*
X139267415Y-85397245D01*
X138737245Y-85927415D01*
X138450320Y-86620114D01*
X138409680Y-86620114D01*
X138122755Y-85927415D01*
X137592585Y-85397245D01*
X136899886Y-85110320D01*
X136150114Y-85110320D01*
X135457415Y-85397245D01*
X134927245Y-85927415D01*
X134720000Y-86427749D01*
X134720000Y-83920000D01*
X182780001Y-83920000D01*
X182780001Y-86427751D01*
X182780001Y-86427751D01*
G37*
X182780001Y-86427751D02*
X182572755Y-85927415D01*
X182042585Y-85397245D01*
X181349886Y-85110320D01*
X180600114Y-85110320D01*
X179907415Y-85397245D01*
X179377245Y-85927415D01*
X179090320Y-86620114D01*
X179090320Y-87369886D01*
X179377245Y-88062585D01*
X179907415Y-88592755D01*
X180090000Y-88668384D01*
X180090000Y-88849478D01*
X180090001Y-88849483D01*
X180090000Y-111298423D01*
X179717733Y-111670690D01*
X179688864Y-111600995D01*
X179442745Y-111526861D01*
X178614605Y-112355000D01*
X178628748Y-112369143D01*
X178449143Y-112548748D01*
X178435000Y-112534605D01*
X177606861Y-113362745D01*
X177648204Y-113499999D01*
X173520000Y-113499999D01*
X173520000Y-113299561D01*
X173301534Y-112772138D01*
X172897862Y-112368466D01*
X172370439Y-112150000D01*
X171799561Y-112150000D01*
X171272138Y-112368466D01*
X170868466Y-112772138D01*
X170650000Y-113299561D01*
X170650000Y-113870439D01*
X170868466Y-114397862D01*
X171272138Y-114801534D01*
X171799561Y-115020000D01*
X172244913Y-115020000D01*
X172246950Y-115023048D01*
X172320843Y-115072422D01*
X172320844Y-115072423D01*
X172343521Y-115087575D01*
X172539689Y-115218651D01*
X172797834Y-115269999D01*
X172797838Y-115269999D01*
X172884998Y-115287336D01*
X172972158Y-115269999D01*
X178167842Y-115269999D01*
X178255003Y-115287336D01*
X178342164Y-115269999D01*
X178342168Y-115269999D01*
X178600313Y-115218651D01*
X178893052Y-115023048D01*
X178942428Y-114949152D01*
X181539156Y-112352425D01*
X181613049Y-112303051D01*
X181662425Y-112229156D01*
X181808652Y-112010312D01*
X181812860Y-111989155D01*
X181860000Y-111752167D01*
X181860000Y-111752163D01*
X181877337Y-111665002D01*
X181860000Y-111577841D01*
X181860000Y-88668384D01*
X182042585Y-88592755D01*
X182572755Y-88062585D01*
X182780001Y-87562249D01*
X182780000Y-119915000D01*
X179142388Y-119915000D01*
X179070000Y-119900601D01*
X178997612Y-119915000D01*
X178783217Y-119957646D01*
X178540095Y-120120095D01*
X178377646Y-120363217D01*
X178320601Y-120650000D01*
X178335001Y-120722393D01*
X178335000Y-126265000D01*
X139165000Y-126265000D01*
X139165000Y-124792745D01*
X142681861Y-124792745D01*
X142755995Y-125038864D01*
X143293223Y-125231965D01*
X143863454Y-125204778D01*
X144264005Y-125038864D01*
X144338139Y-124792745D01*
X173161861Y-124792745D01*
X173235995Y-125038864D01*
X173773223Y-125231965D01*
X174343454Y-125204778D01*
X174744005Y-125038864D01*
X174818139Y-124792745D01*
X173990000Y-123964605D01*
X173161861Y-124792745D01*
X144338139Y-124792745D01*
X143510000Y-123964605D01*
X142681861Y-124792745D01*
X139165000Y-124792745D01*
X139165000Y-123568223D01*
X142063035Y-123568223D01*
X142090222Y-124138454D01*
X142256136Y-124539005D01*
X142502255Y-124613139D01*
X143330395Y-123785000D01*
X143689605Y-123785000D01*
X144517745Y-124613139D01*
X144763864Y-124539005D01*
X144956965Y-124001777D01*
X144929778Y-123431546D01*
X144763864Y-123030995D01*
X144517745Y-122956861D01*
X143689605Y-123785000D01*
X143330395Y-123785000D01*
X142502255Y-122956861D01*
X142256136Y-123030995D01*
X142063035Y-123568223D01*
X139165000Y-123568223D01*
X139165000Y-120722387D01*
X139179399Y-120650000D01*
X139146579Y-120485000D01*
X142062560Y-120485000D01*
X142062560Y-122085000D01*
X142111843Y-122332765D01*
X142252191Y-122542809D01*
X142462235Y-122683157D01*
X142696187Y-122729693D01*
X142681861Y-122777255D01*
X143510000Y-123605395D01*
X144338139Y-122777255D01*
X144323813Y-122729693D01*
X144557765Y-122683157D01*
X144767809Y-122542809D01*
X144908157Y-122332765D01*
X144957440Y-122085000D01*
X144957440Y-121025000D01*
X151552560Y-121025000D01*
X151552560Y-123525000D01*
X151601843Y-123772765D01*
X151742191Y-123982809D01*
X151952235Y-124123157D01*
X152200000Y-124172440D01*
X154700000Y-124172440D01*
X154947765Y-124123157D01*
X155157809Y-123982809D01*
X155298157Y-123772765D01*
X155347440Y-123525000D01*
X155347440Y-121025000D01*
X156852560Y-121025000D01*
X156852560Y-123525000D01*
X156901843Y-123772765D01*
X157042191Y-123982809D01*
X157252235Y-124123157D01*
X157500000Y-124172440D01*
X160000000Y-124172440D01*
X160247765Y-124123157D01*
X160457809Y-123982809D01*
X160598157Y-123772765D01*
X160647440Y-123525000D01*
X160647440Y-121025000D01*
X162152560Y-121025000D01*
X162152560Y-123525000D01*
X162201843Y-123772765D01*
X162342191Y-123982809D01*
X162552235Y-124123157D01*
X162800000Y-124172440D01*
X165300000Y-124172440D01*
X165547765Y-124123157D01*
X165757809Y-123982809D01*
X165898157Y-123772765D01*
X165938842Y-123568223D01*
X172543035Y-123568223D01*
X172570222Y-124138454D01*
X172736136Y-124539005D01*
X172982255Y-124613139D01*
X173810395Y-123785000D01*
X174169605Y-123785000D01*
X174997745Y-124613139D01*
X175243864Y-124539005D01*
X175436965Y-124001777D01*
X175409778Y-123431546D01*
X175243864Y-123030995D01*
X174997745Y-122956861D01*
X174169605Y-123785000D01*
X173810395Y-123785000D01*
X172982255Y-122956861D01*
X172736136Y-123030995D01*
X172543035Y-123568223D01*
X165938842Y-123568223D01*
X165947440Y-123525000D01*
X165947440Y-121025000D01*
X165898157Y-120777235D01*
X165757809Y-120567191D01*
X165634803Y-120485000D01*
X172542560Y-120485000D01*
X172542560Y-122085000D01*
X172591843Y-122332765D01*
X172732191Y-122542809D01*
X172942235Y-122683157D01*
X173176187Y-122729693D01*
X173161861Y-122777255D01*
X173990000Y-123605395D01*
X174818139Y-122777255D01*
X174803813Y-122729693D01*
X175037765Y-122683157D01*
X175247809Y-122542809D01*
X175388157Y-122332765D01*
X175437440Y-122085000D01*
X175437440Y-120485000D01*
X175388157Y-120237235D01*
X175247809Y-120027191D01*
X175037765Y-119886843D01*
X174790000Y-119837560D01*
X173190000Y-119837560D01*
X172942235Y-119886843D01*
X172732191Y-120027191D01*
X172591843Y-120237235D01*
X172542560Y-120485000D01*
X165634803Y-120485000D01*
X165547765Y-120426843D01*
X165300000Y-120377560D01*
X162800000Y-120377560D01*
X162552235Y-120426843D01*
X162342191Y-120567191D01*
X162201843Y-120777235D01*
X162152560Y-121025000D01*
X160647440Y-121025000D01*
X160598157Y-120777235D01*
X160457809Y-120567191D01*
X160247765Y-120426843D01*
X160000000Y-120377560D01*
X157500000Y-120377560D01*
X157252235Y-120426843D01*
X157042191Y-120567191D01*
X156901843Y-120777235D01*
X156852560Y-121025000D01*
X155347440Y-121025000D01*
X155298157Y-120777235D01*
X155157809Y-120567191D01*
X154947765Y-120426843D01*
X154700000Y-120377560D01*
X152200000Y-120377560D01*
X151952235Y-120426843D01*
X151742191Y-120567191D01*
X151601843Y-120777235D01*
X151552560Y-121025000D01*
X144957440Y-121025000D01*
X144957440Y-120485000D01*
X144908157Y-120237235D01*
X144767809Y-120027191D01*
X144557765Y-119886843D01*
X144310000Y-119837560D01*
X142710000Y-119837560D01*
X142462235Y-119886843D01*
X142252191Y-120027191D01*
X142111843Y-120237235D01*
X142062560Y-120485000D01*
X139146579Y-120485000D01*
X139122354Y-120363217D01*
X138959905Y-120120095D01*
X138716783Y-119957646D01*
X138502388Y-119915000D01*
X138430000Y-119900601D01*
X138357612Y-119915000D01*
X134720000Y-119915000D01*
X134720000Y-117173329D01*
X137772284Y-117173329D01*
X137915203Y-117518396D01*
X138262337Y-117906764D01*
X138731669Y-118132727D01*
X138938000Y-118010206D01*
X138938000Y-116967000D01*
X139192000Y-116967000D01*
X139192000Y-118010206D01*
X139398331Y-118132727D01*
X139867663Y-117906764D01*
X140214797Y-117518396D01*
X140357716Y-117173329D01*
X140234374Y-116967000D01*
X139192000Y-116967000D01*
X138938000Y-116967000D01*
X137895626Y-116967000D01*
X137772284Y-117173329D01*
X134720000Y-117173329D01*
X134720000Y-116506671D01*
X137772284Y-116506671D01*
X137895626Y-116713000D01*
X138938000Y-116713000D01*
X138938000Y-115669794D01*
X138731669Y-115547273D01*
X138262337Y-115773236D01*
X137915203Y-116161604D01*
X137772284Y-116506671D01*
X134720000Y-116506671D01*
X134720000Y-87562251D01*
X134927245Y-88062585D01*
X135457415Y-88592755D01*
X135640000Y-88668384D01*
X135640001Y-111577836D01*
X135622663Y-111665002D01*
X135691348Y-112010311D01*
X135837576Y-112229156D01*
X135837577Y-112229157D01*
X135886952Y-112303051D01*
X135960845Y-112352425D01*
X139246093Y-115637673D01*
X139192000Y-115669794D01*
X139192000Y-116713000D01*
X140234374Y-116713000D01*
X140332382Y-116549051D01*
X140462832Y-116574999D01*
X140462836Y-116574999D01*
X140549996Y-116592336D01*
X140637156Y-116574999D01*
X145350000Y-116574999D01*
X145350000Y-117105548D01*
X145553242Y-117596217D01*
X145928783Y-117971758D01*
X146419452Y-118175000D01*
X146950548Y-118175000D01*
X147441217Y-117971758D01*
X147816758Y-117596217D01*
X148020000Y-117105548D01*
X148020000Y-116574999D01*
X151298421Y-116574999D01*
X151640705Y-116917283D01*
X151565000Y-117100050D01*
X151565000Y-117849950D01*
X151851974Y-118542767D01*
X152382233Y-119073026D01*
X153075050Y-119360000D01*
X153824950Y-119360000D01*
X154517767Y-119073026D01*
X155048026Y-118542767D01*
X155335000Y-117849950D01*
X155335000Y-117100050D01*
X155048026Y-116407233D01*
X154517767Y-115876974D01*
X153824950Y-115590000D01*
X153075050Y-115590000D01*
X152892283Y-115665705D01*
X152352424Y-115125846D01*
X152303048Y-115051950D01*
X152010309Y-114856347D01*
X151752164Y-114804999D01*
X151752160Y-114804999D01*
X151664999Y-114787662D01*
X151577838Y-114804999D01*
X146219497Y-114804999D01*
X146227862Y-114801534D01*
X146631534Y-114397862D01*
X146850000Y-113870439D01*
X146850000Y-113299561D01*
X146631534Y-112772138D01*
X146227862Y-112368466D01*
X146062692Y-112300050D01*
X151565000Y-112300050D01*
X151565000Y-113049950D01*
X151851974Y-113742767D01*
X152382233Y-114273026D01*
X153075050Y-114560000D01*
X153824950Y-114560000D01*
X154517767Y-114273026D01*
X155048026Y-113742767D01*
X155335000Y-113049950D01*
X155335000Y-112300050D01*
X155048026Y-111607233D01*
X154517767Y-111076974D01*
X153824950Y-110790000D01*
X153075050Y-110790000D01*
X152382233Y-111076974D01*
X151851974Y-111607233D01*
X151565000Y-112300050D01*
X146062692Y-112300050D01*
X145700439Y-112150000D01*
X145129561Y-112150000D01*
X144602138Y-112368466D01*
X144198466Y-112772138D01*
X143980000Y-113299561D01*
X143980000Y-113870439D01*
X144198466Y-114397862D01*
X144602138Y-114801534D01*
X144610503Y-114804999D01*
X140916576Y-114804999D01*
X139749310Y-113637733D01*
X139819005Y-113608864D01*
X139893139Y-113362745D01*
X139065000Y-112534605D01*
X139050858Y-112548748D01*
X138871253Y-112369143D01*
X138885395Y-112355000D01*
X139244605Y-112355000D01*
X140072745Y-113183139D01*
X140318864Y-113109005D01*
X140511965Y-112571777D01*
X140484778Y-112001546D01*
X140318864Y-111600995D01*
X140072745Y-111526861D01*
X139244605Y-112355000D01*
X138885395Y-112355000D01*
X138057255Y-111526861D01*
X137811136Y-111600995D01*
X137785075Y-111673499D01*
X137410000Y-111298424D01*
X137410000Y-109055000D01*
X137617560Y-109055000D01*
X137617560Y-110655000D01*
X137666843Y-110902765D01*
X137807191Y-111112809D01*
X138017235Y-111253157D01*
X138251187Y-111299693D01*
X138236861Y-111347255D01*
X139065000Y-112175395D01*
X139893139Y-111347255D01*
X139878813Y-111299693D01*
X140112765Y-111253157D01*
X140322809Y-111112809D01*
X140463157Y-110902765D01*
X140512440Y-110655000D01*
X140512440Y-109055000D01*
X140463157Y-108807235D01*
X140322809Y-108597191D01*
X140112765Y-108456843D01*
X139865000Y-108407560D01*
X138265000Y-108407560D01*
X138017235Y-108456843D01*
X137807191Y-108597191D01*
X137666843Y-108807235D01*
X137617560Y-109055000D01*
X137410000Y-109055000D01*
X137410000Y-108299561D01*
X143980000Y-108299561D01*
X143980000Y-108870439D01*
X144198466Y-109397862D01*
X144602138Y-109801534D01*
X145129561Y-110020000D01*
X145700439Y-110020000D01*
X146227862Y-109801534D01*
X146631534Y-109397862D01*
X146850000Y-108870439D01*
X146850000Y-108299561D01*
X146631534Y-107772138D01*
X146227862Y-107368466D01*
X145700439Y-107150000D01*
X145129561Y-107150000D01*
X144602138Y-107368466D01*
X144198466Y-107772138D01*
X143980000Y-108299561D01*
X137410000Y-108299561D01*
X137410000Y-105144452D01*
X137730000Y-105144452D01*
X137730000Y-105675548D01*
X137933242Y-106166217D01*
X138308783Y-106541758D01*
X138799452Y-106745000D01*
X139330548Y-106745000D01*
X139821217Y-106541758D01*
X140196758Y-106166217D01*
X140400000Y-105675548D01*
X140400000Y-105144452D01*
X141540000Y-105144452D01*
X141540000Y-105675548D01*
X141743242Y-106166217D01*
X142118783Y-106541758D01*
X142609452Y-106745000D01*
X143140548Y-106745000D01*
X143631217Y-106541758D01*
X144006758Y-106166217D01*
X144210000Y-105675548D01*
X144210000Y-105144452D01*
X145350000Y-105144452D01*
X145350000Y-105675548D01*
X145553242Y-106166217D01*
X145928783Y-106541758D01*
X146419452Y-106745000D01*
X146950548Y-106745000D01*
X147441217Y-106541758D01*
X147816758Y-106166217D01*
X148020000Y-105675548D01*
X148020000Y-105144452D01*
X149160000Y-105144452D01*
X149160000Y-105675548D01*
X149363242Y-106166217D01*
X149738783Y-106541758D01*
X150229452Y-106745000D01*
X150760548Y-106745000D01*
X151251217Y-106541758D01*
X151626758Y-106166217D01*
X151795416Y-105759039D01*
X153548096Y-105759039D01*
X153708959Y-106147423D01*
X154084866Y-106562389D01*
X154590959Y-106801914D01*
X154813000Y-106680629D01*
X154813000Y-105537000D01*
X153670085Y-105537000D01*
X153548096Y-105759039D01*
X151795416Y-105759039D01*
X151830000Y-105675548D01*
X151830000Y-105144452D01*
X151626758Y-104653783D01*
X151251217Y-104278242D01*
X150760548Y-104075000D01*
X150229452Y-104075000D01*
X149738783Y-104278242D01*
X149363242Y-104653783D01*
X149160000Y-105144452D01*
X148020000Y-105144452D01*
X147816758Y-104653783D01*
X147441217Y-104278242D01*
X146950548Y-104075000D01*
X146419452Y-104075000D01*
X145928783Y-104278242D01*
X145553242Y-104653783D01*
X145350000Y-105144452D01*
X144210000Y-105144452D01*
X144006758Y-104653783D01*
X143631217Y-104278242D01*
X143140548Y-104075000D01*
X142609452Y-104075000D01*
X142118783Y-104278242D01*
X141743242Y-104653783D01*
X141540000Y-105144452D01*
X140400000Y-105144452D01*
X140196758Y-104653783D01*
X139821217Y-104278242D01*
X139330548Y-104075000D01*
X138799452Y-104075000D01*
X138308783Y-104278242D01*
X137933242Y-104653783D01*
X137730000Y-105144452D01*
X137410000Y-105144452D01*
X137410000Y-97790000D01*
X137703846Y-97790000D01*
X137807458Y-98310891D01*
X138102519Y-98752481D01*
X138544109Y-99047542D01*
X138933515Y-99125000D01*
X139196485Y-99125000D01*
X139585891Y-99047542D01*
X140027481Y-98752481D01*
X140322542Y-98310891D01*
X140426154Y-97790000D01*
X141513846Y-97790000D01*
X141617458Y-98310891D01*
X141912519Y-98752481D01*
X142354109Y-99047542D01*
X142743515Y-99125000D01*
X143006485Y-99125000D01*
X143395891Y-99047542D01*
X143837481Y-98752481D01*
X144132542Y-98310891D01*
X144236154Y-97790000D01*
X145323846Y-97790000D01*
X145427458Y-98310891D01*
X145722519Y-98752481D01*
X146164109Y-99047542D01*
X146553515Y-99125000D01*
X146816485Y-99125000D01*
X147205891Y-99047542D01*
X147647481Y-98752481D01*
X147942542Y-98310891D01*
X148046154Y-97790000D01*
X147942542Y-97269109D01*
X147647481Y-96827519D01*
X147205891Y-96532458D01*
X146816485Y-96455000D01*
X146553515Y-96455000D01*
X146164109Y-96532458D01*
X145722519Y-96827519D01*
X145427458Y-97269109D01*
X145323846Y-97790000D01*
X144236154Y-97790000D01*
X144132542Y-97269109D01*
X143837481Y-96827519D01*
X143395891Y-96532458D01*
X143006485Y-96455000D01*
X142743515Y-96455000D01*
X142354109Y-96532458D01*
X141912519Y-96827519D01*
X141617458Y-97269109D01*
X141513846Y-97790000D01*
X140426154Y-97790000D01*
X140322542Y-97269109D01*
X140027481Y-96827519D01*
X139585891Y-96532458D01*
X139196485Y-96455000D01*
X138933515Y-96455000D01*
X138544109Y-96532458D01*
X138102519Y-96827519D01*
X137807458Y-97269109D01*
X137703846Y-97790000D01*
X137410000Y-97790000D01*
X137410000Y-94015000D01*
X137817560Y-94015000D01*
X137817560Y-95215000D01*
X137866843Y-95462765D01*
X138007191Y-95672809D01*
X138217235Y-95813157D01*
X138465000Y-95862440D01*
X139665000Y-95862440D01*
X139912765Y-95813157D01*
X140122809Y-95672809D01*
X140174800Y-95595000D01*
X147048422Y-95595000D01*
X149152026Y-97698605D01*
X149133846Y-97790000D01*
X149237458Y-98310891D01*
X149532519Y-98752481D01*
X149974109Y-99047542D01*
X150363515Y-99125000D01*
X150626485Y-99125000D01*
X151015891Y-99047542D01*
X151457481Y-98752481D01*
X151752542Y-98310891D01*
X151856154Y-97790000D01*
X151752542Y-97269109D01*
X151457481Y-96827519D01*
X151015891Y-96532458D01*
X150626485Y-96455000D01*
X150411579Y-96455000D01*
X148102425Y-94145847D01*
X148053049Y-94071951D01*
X147760310Y-93876348D01*
X147502165Y-93825000D01*
X147502161Y-93825000D01*
X147415000Y-93807663D01*
X147327839Y-93825000D01*
X146187975Y-93825000D01*
X146546758Y-93466217D01*
X146750000Y-92975548D01*
X146750000Y-92710000D01*
X151673846Y-92710000D01*
X151777458Y-93230891D01*
X152072519Y-93672481D01*
X152514109Y-93967542D01*
X152903515Y-94045000D01*
X153118422Y-94045000D01*
X155415981Y-96342560D01*
X154140000Y-96342560D01*
X153892235Y-96391843D01*
X153682191Y-96532191D01*
X153541843Y-96742235D01*
X153492560Y-96990000D01*
X153492560Y-98590000D01*
X153541843Y-98837765D01*
X153682191Y-99047809D01*
X153892235Y-99188157D01*
X154026106Y-99214785D01*
X153905423Y-99295423D01*
X153588260Y-99770091D01*
X153476887Y-100330000D01*
X153588260Y-100889909D01*
X153905423Y-101364577D01*
X154257758Y-101600000D01*
X153905423Y-101835423D01*
X153588260Y-102310091D01*
X153476887Y-102870000D01*
X153588260Y-103429909D01*
X153905423Y-103904577D01*
X154289108Y-104160947D01*
X154084866Y-104257611D01*
X153708959Y-104672577D01*
X153548096Y-105060961D01*
X153670085Y-105283000D01*
X154813000Y-105283000D01*
X154813000Y-105263000D01*
X155067000Y-105263000D01*
X155067000Y-105283000D01*
X155087000Y-105283000D01*
X155087000Y-105537000D01*
X155067000Y-105537000D01*
X155067000Y-106680629D01*
X155289041Y-106801914D01*
X155795134Y-106562389D01*
X156165000Y-106154092D01*
X156164999Y-115687838D01*
X156147662Y-115774999D01*
X156164999Y-115862160D01*
X156164999Y-115862163D01*
X156216347Y-116120308D01*
X156411950Y-116413048D01*
X156485846Y-116462424D01*
X156940705Y-116917283D01*
X156865000Y-117100050D01*
X156865000Y-117849950D01*
X157151974Y-118542767D01*
X157682233Y-119073026D01*
X158375050Y-119360000D01*
X159124950Y-119360000D01*
X159817767Y-119073026D01*
X160348026Y-118542767D01*
X160635000Y-117849950D01*
X160635000Y-117100050D01*
X160348026Y-116407233D01*
X159817767Y-115876974D01*
X159124950Y-115590000D01*
X158375050Y-115590000D01*
X158192283Y-115665705D01*
X157934999Y-115408421D01*
X157934999Y-114381367D01*
X158425806Y-114569388D01*
X159175435Y-114549250D01*
X159774467Y-114301123D01*
X159903715Y-114008320D01*
X158750000Y-112854605D01*
X158735858Y-112868748D01*
X158556253Y-112689143D01*
X158570395Y-112675000D01*
X158929605Y-112675000D01*
X160083320Y-113828715D01*
X160376123Y-113699467D01*
X160644388Y-112999194D01*
X160624250Y-112249565D01*
X160376123Y-111650533D01*
X160083320Y-111521285D01*
X158929605Y-112675000D01*
X158570395Y-112675000D01*
X158556253Y-112660858D01*
X158735858Y-112481253D01*
X158750000Y-112495395D01*
X159903715Y-111341680D01*
X159774467Y-111048877D01*
X159074194Y-110780612D01*
X158324565Y-110800750D01*
X157934999Y-110962113D01*
X157934999Y-96812158D01*
X157952336Y-96724998D01*
X157934999Y-96637839D01*
X157934999Y-96637834D01*
X157929463Y-96610000D01*
X159752663Y-96610000D01*
X159770001Y-96697166D01*
X159770000Y-109132839D01*
X159752663Y-109220000D01*
X159770000Y-109307161D01*
X159770000Y-109307164D01*
X159821348Y-109565309D01*
X160016951Y-109858049D01*
X160090847Y-109907425D01*
X161991757Y-111808336D01*
X162161952Y-112063050D01*
X162235848Y-112112426D01*
X162240705Y-112117283D01*
X162165000Y-112300050D01*
X162165000Y-113049950D01*
X162451974Y-113742767D01*
X162982233Y-114273026D01*
X163675050Y-114560000D01*
X164424950Y-114560000D01*
X164865002Y-114377725D01*
X164865002Y-115408419D01*
X164607717Y-115665704D01*
X164424950Y-115590000D01*
X163675050Y-115590000D01*
X162982233Y-115876974D01*
X162451974Y-116407233D01*
X162165000Y-117100050D01*
X162165000Y-117849950D01*
X162451974Y-118542767D01*
X162982233Y-119073026D01*
X163675050Y-119360000D01*
X164424950Y-119360000D01*
X165117767Y-119073026D01*
X165648026Y-118542767D01*
X165935000Y-117849950D01*
X165935000Y-117100050D01*
X165859296Y-116917283D01*
X166202127Y-116574452D01*
X169480000Y-116574452D01*
X169480000Y-117105548D01*
X169683242Y-117596217D01*
X170058783Y-117971758D01*
X170549452Y-118175000D01*
X171080548Y-118175000D01*
X171571217Y-117971758D01*
X171946758Y-117596217D01*
X172121924Y-117173329D01*
X177142284Y-117173329D01*
X177285203Y-117518396D01*
X177632337Y-117906764D01*
X178101669Y-118132727D01*
X178308000Y-118010206D01*
X178308000Y-116967000D01*
X178562000Y-116967000D01*
X178562000Y-118010206D01*
X178768331Y-118132727D01*
X179237663Y-117906764D01*
X179584797Y-117518396D01*
X179727716Y-117173329D01*
X179604374Y-116967000D01*
X178562000Y-116967000D01*
X178308000Y-116967000D01*
X177265626Y-116967000D01*
X177142284Y-117173329D01*
X172121924Y-117173329D01*
X172150000Y-117105548D01*
X172150000Y-116574452D01*
X172121925Y-116506671D01*
X177142284Y-116506671D01*
X177265626Y-116713000D01*
X178308000Y-116713000D01*
X178308000Y-115669794D01*
X178562000Y-115669794D01*
X178562000Y-116713000D01*
X179604374Y-116713000D01*
X179727716Y-116506671D01*
X179584797Y-116161604D01*
X179237663Y-115773236D01*
X178768331Y-115547273D01*
X178562000Y-115669794D01*
X178308000Y-115669794D01*
X178101669Y-115547273D01*
X177632337Y-115773236D01*
X177285203Y-116161604D01*
X177142284Y-116506671D01*
X172121925Y-116506671D01*
X171946758Y-116083783D01*
X171571217Y-115708242D01*
X171080548Y-115505000D01*
X170549452Y-115505000D01*
X170058783Y-115708242D01*
X169683242Y-116083783D01*
X169480000Y-116574452D01*
X166202127Y-116574452D01*
X166314157Y-116462422D01*
X166388050Y-116413048D01*
X166437426Y-116339153D01*
X166583652Y-116120310D01*
X166583653Y-116120309D01*
X166635001Y-115862164D01*
X166635001Y-115862160D01*
X166652338Y-115775000D01*
X166635001Y-115687840D01*
X166635001Y-112138223D01*
X176988035Y-112138223D01*
X177015222Y-112708454D01*
X177181136Y-113109005D01*
X177427255Y-113183139D01*
X178255395Y-112355000D01*
X177427255Y-111526861D01*
X177181136Y-111600995D01*
X176988035Y-112138223D01*
X166635001Y-112138223D01*
X166635001Y-108299561D01*
X170650000Y-108299561D01*
X170650000Y-108870439D01*
X170868466Y-109397862D01*
X171272138Y-109801534D01*
X171799561Y-110020000D01*
X172370439Y-110020000D01*
X172897862Y-109801534D01*
X173301534Y-109397862D01*
X173520000Y-108870439D01*
X173520000Y-108299561D01*
X173301534Y-107772138D01*
X172897862Y-107368466D01*
X172370439Y-107150000D01*
X171799561Y-107150000D01*
X171272138Y-107368466D01*
X170868466Y-107772138D01*
X170650000Y-108299561D01*
X166635001Y-108299561D01*
X166635001Y-106701735D01*
X166739452Y-106745000D01*
X167270548Y-106745000D01*
X167761217Y-106541758D01*
X168136758Y-106166217D01*
X168340000Y-105675548D01*
X168340000Y-105144452D01*
X169480000Y-105144452D01*
X169480000Y-105675548D01*
X169683242Y-106166217D01*
X170058783Y-106541758D01*
X170549452Y-106745000D01*
X171080548Y-106745000D01*
X171571217Y-106541758D01*
X171946758Y-106166217D01*
X172150000Y-105675548D01*
X172150000Y-105144452D01*
X171946758Y-104653783D01*
X171571217Y-104278242D01*
X171080548Y-104075000D01*
X170549452Y-104075000D01*
X170058783Y-104278242D01*
X169683242Y-104653783D01*
X169480000Y-105144452D01*
X168340000Y-105144452D01*
X168136758Y-104653783D01*
X167761217Y-104278242D01*
X167270548Y-104075000D01*
X166739452Y-104075000D01*
X166635001Y-104118265D01*
X166635001Y-99077556D01*
X166873515Y-99125000D01*
X167136485Y-99125000D01*
X167525891Y-99047542D01*
X167967481Y-98752481D01*
X168262542Y-98310891D01*
X168366154Y-97790000D01*
X169453846Y-97790000D01*
X169557458Y-98310891D01*
X169852519Y-98752481D01*
X170294109Y-99047542D01*
X170683515Y-99125000D01*
X170898421Y-99125000D01*
X170950844Y-99177423D01*
X170950847Y-99177425D01*
X174890002Y-103116581D01*
X174890002Y-104075000D01*
X174359452Y-104075000D01*
X173868783Y-104278242D01*
X173493242Y-104653783D01*
X173290000Y-105144452D01*
X173290000Y-105675548D01*
X173493242Y-106166217D01*
X173868783Y-106541758D01*
X174359452Y-106745000D01*
X174890548Y-106745000D01*
X175231991Y-106603569D01*
X177206217Y-108577796D01*
X177177191Y-108597191D01*
X177036843Y-108807235D01*
X176987560Y-109055000D01*
X176987560Y-110655000D01*
X177036843Y-110902765D01*
X177177191Y-111112809D01*
X177387235Y-111253157D01*
X177621187Y-111299693D01*
X177606861Y-111347255D01*
X178435000Y-112175395D01*
X179263139Y-111347255D01*
X179248813Y-111299693D01*
X179482765Y-111253157D01*
X179692809Y-111112809D01*
X179833157Y-110902765D01*
X179882440Y-110655000D01*
X179882440Y-109055000D01*
X179833157Y-108807235D01*
X179692809Y-108597191D01*
X179482765Y-108456843D01*
X179311018Y-108422681D01*
X179268652Y-108209690D01*
X179073049Y-107916951D01*
X178999156Y-107867577D01*
X176874910Y-105743331D01*
X177142273Y-105743331D01*
X177368236Y-106212663D01*
X177756604Y-106559797D01*
X178101671Y-106702716D01*
X178308000Y-106579374D01*
X178308000Y-105537000D01*
X178562000Y-105537000D01*
X178562000Y-106579374D01*
X178768329Y-106702716D01*
X179113396Y-106559797D01*
X179501764Y-106212663D01*
X179727727Y-105743331D01*
X179605206Y-105537000D01*
X178562000Y-105537000D01*
X178308000Y-105537000D01*
X177264794Y-105537000D01*
X177142273Y-105743331D01*
X176874910Y-105743331D01*
X176660001Y-105528423D01*
X176660001Y-105076669D01*
X177142273Y-105076669D01*
X177264794Y-105283000D01*
X178308000Y-105283000D01*
X178308000Y-104240626D01*
X178562000Y-104240626D01*
X178562000Y-105283000D01*
X179605206Y-105283000D01*
X179727727Y-105076669D01*
X179501764Y-104607337D01*
X179113396Y-104260203D01*
X178768329Y-104117284D01*
X178562000Y-104240626D01*
X178308000Y-104240626D01*
X178101671Y-104117284D01*
X177756604Y-104260203D01*
X177368236Y-104607337D01*
X177142273Y-105076669D01*
X176660001Y-105076669D01*
X176660001Y-102837162D01*
X176677338Y-102750001D01*
X176660001Y-102662840D01*
X176660001Y-102662836D01*
X176608653Y-102404691D01*
X176413050Y-102111952D01*
X176339157Y-102062578D01*
X172202425Y-97925847D01*
X172202423Y-97925844D01*
X172157974Y-97881395D01*
X172176154Y-97790000D01*
X173263846Y-97790000D01*
X173367458Y-98310891D01*
X173662519Y-98752481D01*
X174104109Y-99047542D01*
X174493515Y-99125000D01*
X174756485Y-99125000D01*
X175145891Y-99047542D01*
X175587481Y-98752481D01*
X175882542Y-98310891D01*
X175986154Y-97790000D01*
X175933334Y-97524452D01*
X177100000Y-97524452D01*
X177100000Y-98055548D01*
X177303242Y-98546217D01*
X177678783Y-98921758D01*
X178169452Y-99125000D01*
X178700548Y-99125000D01*
X179191217Y-98921758D01*
X179566758Y-98546217D01*
X179770000Y-98055548D01*
X179770000Y-97524452D01*
X179566758Y-97033783D01*
X179191217Y-96658242D01*
X178700548Y-96455000D01*
X178169452Y-96455000D01*
X177678783Y-96658242D01*
X177303242Y-97033783D01*
X177100000Y-97524452D01*
X175933334Y-97524452D01*
X175882542Y-97269109D01*
X175587481Y-96827519D01*
X175145891Y-96532458D01*
X174756485Y-96455000D01*
X174493515Y-96455000D01*
X174104109Y-96532458D01*
X173662519Y-96827519D01*
X173367458Y-97269109D01*
X173263846Y-97790000D01*
X172176154Y-97790000D01*
X172072542Y-97269109D01*
X171777481Y-96827519D01*
X171335891Y-96532458D01*
X170946485Y-96455000D01*
X170683515Y-96455000D01*
X170294109Y-96532458D01*
X169852519Y-96827519D01*
X169557458Y-97269109D01*
X169453846Y-97790000D01*
X168366154Y-97790000D01*
X168347974Y-97698604D01*
X170546579Y-95500000D01*
X175689311Y-95500000D01*
X175776472Y-95517337D01*
X175863633Y-95500000D01*
X175863637Y-95500000D01*
X176121782Y-95448652D01*
X176414521Y-95253049D01*
X176447279Y-95204024D01*
X176565000Y-95227440D01*
X177765000Y-95227440D01*
X178012765Y-95178157D01*
X178222809Y-95037809D01*
X178363157Y-94827765D01*
X178412440Y-94580000D01*
X178412440Y-93380000D01*
X178363157Y-93132235D01*
X178222809Y-92922191D01*
X178070879Y-92820674D01*
X178211982Y-92679571D01*
X178400000Y-92225657D01*
X178400000Y-91734343D01*
X178211982Y-91280429D01*
X177864571Y-90933018D01*
X177410657Y-90745000D01*
X176919343Y-90745000D01*
X176465429Y-90933018D01*
X176118018Y-91280429D01*
X175930000Y-91734343D01*
X175930000Y-92225657D01*
X176118018Y-92679571D01*
X176259121Y-92820674D01*
X176107191Y-92922191D01*
X175966843Y-93132235D01*
X175941151Y-93261401D01*
X175678423Y-93436951D01*
X175629047Y-93510847D01*
X175409894Y-93730000D01*
X173460816Y-93730000D01*
X173559534Y-93624332D01*
X173774175Y-93106122D01*
X173656125Y-92837000D01*
X172212000Y-92837000D01*
X172212000Y-92857000D01*
X171958000Y-92857000D01*
X171958000Y-92837000D01*
X171938000Y-92837000D01*
X171938000Y-92583000D01*
X171958000Y-92583000D01*
X171958000Y-92563000D01*
X172212000Y-92563000D01*
X172212000Y-92583000D01*
X173656125Y-92583000D01*
X173774175Y-92313878D01*
X173559534Y-91795668D01*
X173097392Y-91300988D01*
X172578966Y-91065299D01*
X172589265Y-91055000D01*
X173902839Y-91055000D01*
X173990000Y-91072337D01*
X174077161Y-91055000D01*
X174077165Y-91055000D01*
X174335310Y-91003652D01*
X174628049Y-90808049D01*
X174677425Y-90734153D01*
X176607528Y-88804051D01*
X176790114Y-88879680D01*
X177539886Y-88879680D01*
X178232585Y-88592755D01*
X178762755Y-88062585D01*
X179049680Y-87369886D01*
X179049680Y-86620114D01*
X178762755Y-85927415D01*
X178232585Y-85397245D01*
X177539886Y-85110320D01*
X176790114Y-85110320D01*
X176097415Y-85397245D01*
X175567245Y-85927415D01*
X175280320Y-86620114D01*
X175280320Y-87369886D01*
X175355949Y-87552472D01*
X173623422Y-89285000D01*
X172309845Y-89285000D01*
X172222685Y-89267663D01*
X172135525Y-89285000D01*
X172135521Y-89285000D01*
X171877376Y-89336348D01*
X171877374Y-89336349D01*
X171877375Y-89336349D01*
X171658531Y-89482576D01*
X171658530Y-89482577D01*
X171584637Y-89531951D01*
X171535263Y-89605844D01*
X169615847Y-91525261D01*
X169541951Y-91574637D01*
X169346348Y-91867377D01*
X169295000Y-92125522D01*
X169295000Y-92125525D01*
X169277663Y-92212686D01*
X169295000Y-92299847D01*
X169295000Y-92546419D01*
X165185848Y-96655572D01*
X165111952Y-96704948D01*
X164916349Y-96997688D01*
X164865001Y-97255833D01*
X164865001Y-97255836D01*
X164847664Y-97342997D01*
X164865001Y-97430158D01*
X164865002Y-110972275D01*
X164424950Y-110790000D01*
X163675050Y-110790000D01*
X163522421Y-110853221D01*
X163487425Y-110800846D01*
X163487423Y-110800844D01*
X163438050Y-110726952D01*
X163364157Y-110677578D01*
X161540000Y-108853422D01*
X161540000Y-106454317D01*
X162000091Y-106761740D01*
X162418667Y-106845000D01*
X162701333Y-106845000D01*
X163119909Y-106761740D01*
X163594577Y-106444577D01*
X163911740Y-105969909D01*
X164023113Y-105410000D01*
X163911740Y-104850091D01*
X163594577Y-104375423D01*
X163242242Y-104140000D01*
X163594577Y-103904577D01*
X163911740Y-103429909D01*
X164023113Y-102870000D01*
X163911740Y-102310091D01*
X163594577Y-101835423D01*
X163242242Y-101600000D01*
X163594577Y-101364577D01*
X163911740Y-100889909D01*
X164023113Y-100330000D01*
X163911740Y-99770091D01*
X163594577Y-99295423D01*
X163242242Y-99060000D01*
X163594577Y-98824577D01*
X163911740Y-98349909D01*
X164023113Y-97790000D01*
X163911740Y-97230091D01*
X163594577Y-96755423D01*
X163445000Y-96655479D01*
X163445000Y-96581578D01*
X165029156Y-94997423D01*
X165103049Y-94948049D01*
X165298652Y-94655310D01*
X165338011Y-94457440D01*
X165565000Y-94457440D01*
X165812765Y-94408157D01*
X166022809Y-94267809D01*
X166163157Y-94057765D01*
X166212440Y-93810000D01*
X166212440Y-91610000D01*
X166163157Y-91362235D01*
X166022809Y-91152191D01*
X165812765Y-91011843D01*
X165565000Y-90962560D01*
X164454016Y-90962560D01*
X165836896Y-89579681D01*
X167123158Y-89579681D01*
X167210319Y-89597018D01*
X167297480Y-89579681D01*
X167297484Y-89579681D01*
X167555629Y-89528333D01*
X167848368Y-89332730D01*
X167897744Y-89258834D01*
X168352528Y-88804050D01*
X168535114Y-88879680D01*
X169284886Y-88879680D01*
X169977585Y-88592755D01*
X170210739Y-88359601D01*
X170237163Y-88492445D01*
X170377511Y-88702489D01*
X170587555Y-88842837D01*
X170835320Y-88892120D01*
X173334680Y-88892120D01*
X173582445Y-88842837D01*
X173792489Y-88702489D01*
X173932837Y-88492445D01*
X173982120Y-88244680D01*
X173982120Y-85745320D01*
X173932837Y-85497555D01*
X173792489Y-85287511D01*
X173582445Y-85147163D01*
X173334680Y-85097880D01*
X170835320Y-85097880D01*
X170587555Y-85147163D01*
X170377511Y-85287511D01*
X170237163Y-85497555D01*
X170210739Y-85630399D01*
X169977585Y-85397245D01*
X169284886Y-85110320D01*
X168535114Y-85110320D01*
X167842415Y-85397245D01*
X167312245Y-85927415D01*
X167304591Y-85945892D01*
X167068089Y-85841517D01*
X165914605Y-86995000D01*
X165928748Y-87009142D01*
X165749142Y-87188748D01*
X165735000Y-87174605D01*
X164894669Y-88014937D01*
X164832268Y-88056632D01*
X164790573Y-88119033D01*
X164581517Y-88328089D01*
X164582685Y-88330735D01*
X162350844Y-90562576D01*
X162276951Y-90611950D01*
X162227577Y-90685843D01*
X162227575Y-90685845D01*
X162081347Y-90904690D01*
X162012662Y-91249999D01*
X162030000Y-91337164D01*
X162029999Y-93983422D01*
X160090845Y-95922577D01*
X160016952Y-95971951D01*
X159967578Y-96045844D01*
X159967576Y-96045846D01*
X159821348Y-96264691D01*
X159752663Y-96610000D01*
X157929463Y-96610000D01*
X157883651Y-96379689D01*
X157688048Y-96086950D01*
X157614155Y-96037576D01*
X154377974Y-92801396D01*
X154396154Y-92710000D01*
X154292542Y-92189109D01*
X154039230Y-91810000D01*
X155932560Y-91810000D01*
X155932560Y-93610000D01*
X155981843Y-93857765D01*
X156122191Y-94067809D01*
X156332235Y-94208157D01*
X156580000Y-94257440D01*
X158380000Y-94257440D01*
X158627765Y-94208157D01*
X158837809Y-94067809D01*
X158978157Y-93857765D01*
X158981275Y-93842092D01*
X159150493Y-94011310D01*
X159714670Y-94245000D01*
X160325330Y-94245000D01*
X160889507Y-94011310D01*
X161321310Y-93579507D01*
X161555000Y-93015330D01*
X161555000Y-92404670D01*
X161321310Y-91840493D01*
X160889507Y-91408690D01*
X160325330Y-91175000D01*
X159714670Y-91175000D01*
X159150493Y-91408690D01*
X158981275Y-91577908D01*
X158978157Y-91562235D01*
X158837809Y-91352191D01*
X158627765Y-91211843D01*
X158380000Y-91162560D01*
X156580000Y-91162560D01*
X156332235Y-91211843D01*
X156122191Y-91352191D01*
X155981843Y-91562235D01*
X155932560Y-91810000D01*
X154039230Y-91810000D01*
X153997481Y-91747519D01*
X153555891Y-91452458D01*
X153166485Y-91375000D01*
X152903515Y-91375000D01*
X152514109Y-91452458D01*
X152072519Y-91747519D01*
X151777458Y-92189109D01*
X151673846Y-92710000D01*
X146750000Y-92710000D01*
X146750000Y-92444452D01*
X146546758Y-91953783D01*
X146171217Y-91578242D01*
X145680548Y-91375000D01*
X145149452Y-91375000D01*
X144658783Y-91578242D01*
X144283242Y-91953783D01*
X144080000Y-92444452D01*
X144080000Y-92975548D01*
X144283242Y-93466217D01*
X144642025Y-93825000D01*
X140274647Y-93825000D01*
X140263157Y-93767235D01*
X140122809Y-93557191D01*
X139970879Y-93455674D01*
X140111982Y-93314571D01*
X140300000Y-92860657D01*
X140300000Y-92369343D01*
X140111982Y-91915429D01*
X139764571Y-91568018D01*
X139310657Y-91380000D01*
X138819343Y-91380000D01*
X138365429Y-91568018D01*
X138018018Y-91915429D01*
X137830000Y-92369343D01*
X137830000Y-92860657D01*
X138018018Y-93314571D01*
X138159121Y-93455674D01*
X138007191Y-93557191D01*
X137866843Y-93767235D01*
X137817560Y-94015000D01*
X137410000Y-94015000D01*
X137410000Y-88668384D01*
X137592585Y-88592755D01*
X138122755Y-88062585D01*
X138409680Y-87369886D01*
X138409680Y-86620114D01*
X138450320Y-86620114D01*
X138450320Y-87369886D01*
X138737245Y-88062585D01*
X139267415Y-88592755D01*
X139960114Y-88879680D01*
X140709886Y-88879680D01*
X140892472Y-88804051D01*
X141020524Y-88932103D01*
X141020527Y-88932105D01*
X141347256Y-89258834D01*
X141396632Y-89332730D01*
X141689371Y-89528333D01*
X141947516Y-89579681D01*
X141947520Y-89579681D01*
X142034681Y-89597018D01*
X142121842Y-89579681D01*
X146803158Y-89579681D01*
X146890319Y-89597018D01*
X146977480Y-89579681D01*
X146977484Y-89579681D01*
X147235629Y-89528333D01*
X147528368Y-89332730D01*
X147577744Y-89258834D01*
X148032528Y-88804050D01*
X148215114Y-88879680D01*
X148964886Y-88879680D01*
X149657585Y-88592755D01*
X149922251Y-88328089D01*
X150611517Y-88328089D01*
X150740725Y-88620859D01*
X151440883Y-88889071D01*
X152190384Y-88868928D01*
X152789275Y-88620859D01*
X152918483Y-88328089D01*
X155691517Y-88328089D01*
X155820725Y-88620859D01*
X156520883Y-88889071D01*
X157270384Y-88868928D01*
X157869275Y-88620859D01*
X157998483Y-88328089D01*
X156845000Y-87174605D01*
X155691517Y-88328089D01*
X152918483Y-88328089D01*
X151765000Y-87174605D01*
X150611517Y-88328089D01*
X149922251Y-88328089D01*
X150187755Y-88062585D01*
X150195409Y-88044108D01*
X150431911Y-88148483D01*
X151585395Y-86995000D01*
X151944605Y-86995000D01*
X153098089Y-88148483D01*
X153390859Y-88019275D01*
X153659071Y-87319117D01*
X153641650Y-86670883D01*
X154950929Y-86670883D01*
X154971072Y-87420384D01*
X155219141Y-88019275D01*
X155511911Y-88148483D01*
X156665395Y-86995000D01*
X157024605Y-86995000D01*
X158178089Y-88148483D01*
X158470859Y-88019275D01*
X158739071Y-87319117D01*
X158718928Y-86569616D01*
X158470859Y-85970725D01*
X158178089Y-85841517D01*
X157024605Y-86995000D01*
X156665395Y-86995000D01*
X155511911Y-85841517D01*
X155219141Y-85970725D01*
X154950929Y-86670883D01*
X153641650Y-86670883D01*
X153638928Y-86569616D01*
X153390859Y-85970725D01*
X153098089Y-85841517D01*
X151944605Y-86995000D01*
X151585395Y-86995000D01*
X150431911Y-85841517D01*
X150195409Y-85945892D01*
X150187755Y-85927415D01*
X149922251Y-85661911D01*
X150611517Y-85661911D01*
X151765000Y-86815395D01*
X152918483Y-85661911D01*
X155691517Y-85661911D01*
X156845000Y-86815395D01*
X157915074Y-85745320D01*
X158757880Y-85745320D01*
X158757880Y-88244680D01*
X158807163Y-88492445D01*
X158947511Y-88702489D01*
X159157555Y-88842837D01*
X159405320Y-88892120D01*
X161904680Y-88892120D01*
X162152445Y-88842837D01*
X162362489Y-88702489D01*
X162502837Y-88492445D01*
X162552120Y-88244680D01*
X162552120Y-86670883D01*
X163840929Y-86670883D01*
X163861072Y-87420384D01*
X164109141Y-88019275D01*
X164401911Y-88148483D01*
X165555395Y-86995000D01*
X164401911Y-85841517D01*
X164109141Y-85970725D01*
X163840929Y-86670883D01*
X162552120Y-86670883D01*
X162552120Y-85745320D01*
X162535530Y-85661911D01*
X164581517Y-85661911D01*
X165735000Y-86815395D01*
X166888483Y-85661911D01*
X166759275Y-85369141D01*
X166059117Y-85100929D01*
X165309616Y-85121072D01*
X164710725Y-85369141D01*
X164581517Y-85661911D01*
X162535530Y-85661911D01*
X162502837Y-85497555D01*
X162362489Y-85287511D01*
X162152445Y-85147163D01*
X161904680Y-85097880D01*
X159405320Y-85097880D01*
X159157555Y-85147163D01*
X158947511Y-85287511D01*
X158807163Y-85497555D01*
X158757880Y-85745320D01*
X157915074Y-85745320D01*
X157998483Y-85661911D01*
X157869275Y-85369141D01*
X157169117Y-85100929D01*
X156419616Y-85121072D01*
X155820725Y-85369141D01*
X155691517Y-85661911D01*
X152918483Y-85661911D01*
X152789275Y-85369141D01*
X152089117Y-85100929D01*
X151339616Y-85121072D01*
X150740725Y-85369141D01*
X150611517Y-85661911D01*
X149922251Y-85661911D01*
X149657585Y-85397245D01*
X148964886Y-85110320D01*
X148215114Y-85110320D01*
X147522415Y-85397245D01*
X147289261Y-85630399D01*
X147262837Y-85497555D01*
X147122489Y-85287511D01*
X146912445Y-85147163D01*
X146664680Y-85097880D01*
X144165320Y-85097880D01*
X143917555Y-85147163D01*
X143707511Y-85287511D01*
X143567163Y-85497555D01*
X143517880Y-85745320D01*
X143517880Y-87809681D01*
X142401259Y-87809681D01*
X142272105Y-87680527D01*
X142272103Y-87680524D01*
X142144051Y-87552472D01*
X142219680Y-87369886D01*
X142219680Y-86620114D01*
X141932755Y-85927415D01*
X141402585Y-85397245D01*
X140709886Y-85110320D01*
X139960114Y-85110320D01*
X139267415Y-85397245D01*
X138737245Y-85927415D01*
X138450320Y-86620114D01*
X138409680Y-86620114D01*
X138122755Y-85927415D01*
X137592585Y-85397245D01*
X136899886Y-85110320D01*
X136150114Y-85110320D01*
X135457415Y-85397245D01*
X134927245Y-85927415D01*
X134720000Y-86427749D01*
X134720000Y-83920000D01*
X182780001Y-83920000D01*
X182780001Y-86427751D01*
G04 #@! TD*
M02*
